<?xml version="1.0" encoding="UTF-8" standalone="no"?>
<!-- Created with Inkscape (http://www.inkscape.org/) -->

<svg
   xmlns:dc="http://purl.org/dc/elements/1.1/"
   xmlns:cc="http://creativecommons.org/ns#"
   xmlns:rdf="http://www.w3.org/1999/02/22-rdf-syntax-ns#"
   xmlns:svg="http://www.w3.org/2000/svg"
   xmlns="http://www.w3.org/2000/svg"
   xmlns:sodipodi="http://sodipodi.sourceforge.net/DTD/sodipodi-0.dtd"
   xmlns:inkscape="http://www.inkscape.org/namespaces/inkscape"
   width="108.51143mm"
   height="51.850288mm"
   viewBox="0 0 108.51143 51.850288"
   version="1.1"
   id="svg8"
   inkscape:version="0.92.4 (5da689c313, 2019-01-14)">
  <defs
     id="defs2" />
  <sodipodi:namedview
     id="base"
     pagecolor="#ffffff"
     bordercolor="#666666"
     borderopacity="1.0"
     inkscape:pageopacity="0.0"
     inkscape:pageshadow="2"
     inkscape:zoom="0.98994949"
     inkscape:cx="321.6525"
     inkscape:cy="-25.888482"
     inkscape:document-units="mm"
     inkscape:current-layer="layer1"
     showgrid="false"
     inkscape:snap-nodes="false"
     inkscape:window-width="1600"
     inkscape:window-height="837"
     inkscape:window-x="1912"
     inkscape:window-y="-8"
     inkscape:window-maximized="1"
     fit-margin-top="0"
     fit-margin-left="0"
     fit-margin-right="0"
     fit-margin-bottom="0" />
  <metadata
     id="metadata5">
    <rdf:RDF>
      <cc:Work
         rdf:about="">
        <dc:format>image/svg+xml</dc:format>
        <dc:type
           rdf:resource="http://purl.org/dc/dcmitype/StillImage" />
        <dc:title></dc:title>
      </cc:Work>
    </rdf:RDF>
  </metadata>
  <g
     inkscape:label="Vrstva 1"
     inkscape:groupmode="layer"
     id="layer1"
     transform="translate(-31.805073,-41.223061)">
    <g
       id="g4934">
      <rect
         ry="7.0999999"
         rx="5"
         y="41.223061"
         x="31.805073"
         height="51.850288"
         width="108.51143"
         id="rect4810"
         style="fill:#101619;fill-opacity:1;stroke:none;stroke-width:1.33119428;stroke-linecap:butt;stroke-linejoin:round;stroke-miterlimit:4;stroke-dasharray:none;stroke-opacity:1;paint-order:markers fill stroke" />
      <g
         transform="matrix(0.03307291,0,0,0.03307291,35.679155,45.183683)"
         id="g4808">
        <path
           style="fill:#ffffff"
           inkscape:connector-curvature="0"
           d="M 387,0 774,218.9 V 656.8 L 387,875.7 0,656.8 V 218.9 Z"
           id="path4788" />
        <path
           style="fill:#8ed6fb"
           inkscape:connector-curvature="0"
           d="M 704.9,641.7 399.8,814.3 V 679.9 L 589.9,575.3 Z m 20.9,-18.9 V 261.9 l -111.6,64.5 v 232 z M 67.9,641.7 373,814.3 V 679.9 L 182.8,575.3 Z M 47,622.8 V 261.9 l 111.6,64.5 v 232 z M 60.1,238.5 373,61.5 v 129.9 l -200.5,110.3 -1.6,0.9 z m 652.6,0 -312.9,-177 v 129.9 l 200.5,110.2 1.6,0.9 z"
           id="path4790" />
        <path
           style="fill:#1c78c0"
           inkscape:connector-curvature="0"
           d="M 373,649.3 185.4,546.1 V 341.8 L 373,450.1 Z m 26.8,0 187.6,-103.1 V 341.8 L 399.8,450.1 Z M 198.1,318.2 386.4,214.7 574.7,318.2 386.4,426.9 Z"
           id="path4792" />
        <path
           style="fill:#f5fafa"
           inkscape:connector-curvature="0"
           d="m 1164.3,576.3 h 82.5 l 84.1,-280.2 h -80.4 l -49.8,198.8 -53.1,-198.8 H 1078 l -53.6,198.8 -49.3,-198.8 h -80.4 l 83.6,280.2 h 82.5 l 52,-179.5 z M 1335.2,437 c 0,84.1 57.3,146.3 147.4,146.3 69.7,0 107.2,-41.8 117.9,-61.6 l -48.8,-37 c -8,11.8 -30,34.3 -68.1,34.3 -41.3,0 -71.3,-26.8 -72.9,-64.3 H 1608 c 0.5,-5.4 0.5,-10.7 0.5,-16.1 0,-91.6 -49.3,-149.5 -136.1,-149.5 -79.9,0 -137.2,63.2 -137.2,147.9 z m 77.7,-30.6 c 3.2,-32.1 25.7,-56.8 60.6,-56.8 33.8,0 58.4,22.5 60,56.8 z m 223.5,169.9 h 69.7 v -28.9 c 7.5,9.1 35.4,35.9 83.1,35.9 80.4,0 137.2,-60.5 137.2,-146.8 0,-86.8 -52.5,-147.3 -132.9,-147.3 -48.2,0 -76.1,26.8 -83.1,36.4 V 188.9 h -73.9 V 576.3 Z M 1708.2,437 c 0,-52.5 31.1,-82.5 71.8,-82.5 42.9,0 71.8,33.8 71.8,82.5 0,49.8 -30,80.9 -71.8,80.9 -45,0 -71.8,-36.5 -71.8,-80.9 z m 247,239.5 h 73.9 V 547.3 c 7,9.1 34.8,35.9 83.1,35.9 80.4,0 132.9,-60.5 132.9,-147.3 0,-85.7 -56.8,-146.8 -137.2,-146.8 -47.7,0 -75.6,26.8 -83.1,36.4 V 296 h -69.7 V 676.5 Z M 2027,435.4 c 0,-44.5 26.8,-80.9 71.8,-80.9 41.8,0 71.8,31.1 71.8,80.9 0,48.8 -28.9,82.5 -71.8,82.5 -40.7,0 -71.8,-30 -71.8,-82.5 z m 231.5,54.1 c 0,58.9 48.2,93.8 105,93.8 32.2,0 53.6,-9.6 68.1,-25.2 l 4.8,18.2 h 65.4 V 398.9 c 0,-62.7 -26.8,-109.8 -116.8,-109.8 -42.9,0 -85.2,16.1 -110.4,33.2 l 27.9,50.4 a 165.2,165.2 0 0 1 74.5,-19.8 c 32.7,0 50.9,16.6 50.9,41.3 v 18.2 c -10.2,-7 -32.2,-15.5 -60.6,-15.5 -65.4,-0.1 -108.8,37.4 -108.8,92.6 z m 73.9,-2.2 c 0,-23 19.8,-39.1 48.2,-39.1 28.4,0 48.8,14.5 48.8,39.1 0,23.6 -20.4,38.6 -48.2,38.6 -27.8,0 -48.8,-15.5 -48.8,-38.6 z m 348.9,30.6 c -46.6,0 -79.8,-33.8 -79.8,-81.4 0,-45 29.5,-82 77.2,-82 a 95.2,95.2 0 0 1 65.4,26.8 l 20.9,-62.2 a 142.6,142.6 0 0 0 -88.4,-30 c -85.2,0 -149,62.7 -149,147.9 0,85.2 62.2,146.3 149.5,146.3 a 141,141 0 0 0 87.3,-30 l -19.8,-60.5 c -12.4,10.1 -34.9,25.1 -63.3,25.1 z m 110.9,58.4 h 73.9 V 431.6 l 93.8,144.7 h 86.8 L 2940.6,423 3039.2,296 h -83.1 l -90,117.9 v -225 h -73.9 z"
           id="path4794" />
      </g>
      <g
         transform="matrix(0.03307292,0,0,0.03307291,110.18136,70.314453)"
         id="g4871"
         style="fill:none">
        <rect
           style="fill:#3178c6"
           y="0"
           x="0"
           height="512"
           rx="50"
           width="512"
           id="rect4854" />
        <rect
           style="fill:#3178c6"
           y="0"
           x="0"
           height="512"
           rx="50"
           width="512"
           id="rect4856" />
        <path
           style="clip-rule:evenodd;fill:#ffffff;fill-rule:evenodd"
           inkscape:connector-curvature="0"
           d="m 316.939,407.424 v 50.061 c 8.138,4.172 17.763,7.3 28.875,9.386 11.112,2.086 22.823,3.129 35.135,3.129 11.999,0 23.397,-1.147 34.196,-3.442 10.799,-2.294 20.268,-6.075 28.406,-11.342 8.138,-5.266 14.581,-12.15 19.328,-20.65 4.747,-8.5 7.121,-19.007 7.121,-31.522 0,-9.074 -1.356,-17.026 -4.069,-23.857 -2.713,-6.831 -6.625,-12.906 -11.738,-18.225 -5.112,-5.319 -11.242,-10.091 -18.389,-14.315 -7.147,-4.224 -15.207,-8.213 -24.18,-11.967 -6.573,-2.712 -12.468,-5.345 -17.685,-7.9 -5.217,-2.556 -9.651,-5.163 -13.303,-7.822 -3.652,-2.66 -6.469,-5.476 -8.451,-8.448 -1.982,-2.973 -2.974,-6.336 -2.974,-10.091 0,-3.441 0.887,-6.544 2.661,-9.308 1.774,-2.764 4.278,-5.136 7.512,-7.118 3.235,-1.981 7.199,-3.52 11.894,-4.615 4.696,-1.095 9.912,-1.642 15.651,-1.642 4.173,0 8.581,0.313 13.224,0.938 4.643,0.626 9.312,1.591 14.008,2.894 4.695,1.304 9.259,2.947 13.694,4.928 4.434,1.982 8.529,4.276 12.285,6.884 v -46.776 c -7.616,-2.92 -15.937,-5.084 -24.962,-6.492 -9.025,-1.408 -19.381,-2.112 -31.066,-2.112 -11.895,0 -23.163,1.278 -33.805,3.833 -10.642,2.555 -20.006,6.544 -28.093,11.967 -8.086,5.424 -14.476,12.333 -19.171,20.729 -4.695,8.395 -7.043,18.433 -7.043,30.114 0,14.914 4.304,27.638 12.912,38.172 8.607,10.533 21.675,19.45 39.204,26.751 6.886,2.816 13.303,5.579 19.25,8.291 5.947,2.712 11.086,5.528 15.415,8.448 4.33,2.92 7.747,6.101 10.252,9.543 2.504,3.441 3.756,7.352 3.756,11.733 0,3.233 -0.783,6.231 -2.348,8.995 -1.565,2.764 -3.939,5.162 -7.121,7.196 -3.182,2.034 -7.147,3.624 -11.894,4.771 -4.748,1.148 -10.303,1.721 -16.668,1.721 -10.851,0 -21.597,-1.903 -32.24,-5.71 -10.642,-3.806 -20.502,-9.516 -29.579,-17.13 z M 232.78,284.082 H 297 V 243 H 118 v 41.082 h 63.906 V 467 h 50.874 z"
           id="path4858" />
      </g>
      <g
         id="g4877"
         transform="matrix(0.03307292,0,0,0.03307292,56.536342,68.01472)">
        <path
           id="path4873"
           d="m 1063.3,151.8 -0.3,-2.9 -4.7,0.4 0.3,2.9 z m 31.6,76 0.1,1.6 3.3,-0.3 c -0.1,-1 0.3,-2.6 1,-4.6 l -0.3,-2.9 c -1.4,0.1 -2.8,2.2 -4.1,6.2 z m -123.3,95.7 c -0.2,-2.7 -8.6,-13.2 -25.2,-31.7 -0.3,-3.4 5.4,-8.5 17.1,-15.2 l 33.4,-29.1 c 7.5,-9.5 11.9,-24.9 13.2,-46.3 l -0.4,-4.9 c -1.3,-14.8 -12,-26.7 -32.3,-35.8 -12,-8.1 -33.6,-12.6 -64.8,-13.4 -25.8,2.2 -59.5,11.4 -101,27.7 -11.4,8.2 -24.4,16.4 -39,24.6 l 0.2,2.5 c 0.9,-0.1 2.3,-0.6 3.9,-1.7 1.7,-0.2 2.7,0.6 2.8,2.2 l 2.5,-1.3 1.2,-0.1 0.1,1.1 c 0.1,1.3 -8.9,8.4 -27.1,21.1 l 1.4,2.6 -1.2,0.1 -3,-1.1 c 0.1,0.9 -1.2,1.5 -3.7,1.7 l 0.1,1.1 2.9,3.6 c -0.9,0.1 -2.3,-0.3 -4.2,-1 -4.2,0.4 -8.3,2.6 -12.4,6.8 l 1.7,-7.4 c 6.1,-26.3 10.3,-49.6 12.5,-69.8 l -0.3,-1.3 c -4.2,-2.7 -8.3,-6.5 -12.1,-11.3 0.1,-3.1 0.1,-4.9 0,-5.3 l -0.3,-1.1 -1.2,0.3 c -13.2,19.8 -38.6,53.6 -76.3,101.4 -28.7,34 -43.5,52.9 -44.4,56.7 -11.7,12.1 -17.3,19.4 -16.7,21.9 -3.1,2 -4.4,4 -3.9,6.2 -0.9,0.2 -1.5,-0.1 -1.7,-1 -5,8.1 -12.4,13.3 -22.3,15.6 l -10.4,2.4 c -1.4,0.3 -2.1,1.3 -2,3 l 0.3,1.3 3.9,-0.9 0.3,1.1 -8.8,3.4 -15.6,3.6 -8.2,0.5 c -1.2,1.2 6.5,-0.1 3.5,0.6 l -10.2,2.4 c -6.2,1.4 -9.6,0.9 -10.2,-1.6 l -1.2,0.3 c 0.2,1.1 0.3,1.9 0.1,2.6 l -0.6,-2.5 -8.2,1.9 c -0.6,-3.8 -11.7,-17.6 -33.2,-41.4 -0.4,-4.6 7.2,-11.3 22.7,-20 l 43.8,-38.5 c 9.8,-12.6 15.6,-32.8 17.5,-60.6 L 554,193 c -1.7,-19.6 -15.9,-35.4 -42.6,-47.6 -15.8,-10.7 -44.2,-16.4 -85.2,-17.3 -34,2.9 -78.4,15 -133,36.1 -15,10.9 -32.1,21.7 -51.3,32.4 l 0.3,3.4 c 1.3,-0.1 3,-0.8 5.1,-2 2.2,-0.2 3.4,0.8 3.6,2.8 l 3.4,-1.9 1.7,-0.1 0.1,1.6 c 0.1,1.6 -11.8,10.9 -35.9,27.9 l 1.9,3 -1.7,0.1 -3.7,-1.3 c 0.1,1 -1.6,1.7 -5.1,2 l 0.2,1.8 4,4.4 c -1.3,0.1 -3.1,-0.3 -5.4,-1.1 -7.8,0.7 -15.4,6.3 -22.9,16.9 l 1.9,3 c 6.5,-6 10.3,-9 11.4,-9.1 l 0.4,4.9 c -1.1,0.1 -2.8,0.8 -5.1,2 l 4.1,6.2 c 7.9,-8.5 16.6,-15.8 26.1,-21.9 4.7,1.2 7.2,2.7 7.3,4.3 l 3.6,-0.3 c 25.8,-19.1 51.3,-32.9 76.6,-41.4 l 0.3,3.4 c -4.7,7 -7.9,10.6 -9.6,10.8 0.2,2.4 1,4.5 2.5,6.3 0.4,4.3 -11.1,33.3 -34.4,86.9 -52.9,124.6 -97.3,216.8 -133.4,276.4 0.1,1.2 0.8,2.8 2.1,4.8 8.9,-2.1 14.5,-4.3 16.9,-6.4 l 1.9,-0.2 0.3,3.4 3.3,-0.3 3.4,-1.9 c 0.1,1 1.2,1.5 3.5,1.3 l 0.3,3.4 c 0.3,3.3 -1.6,8.3 -5.6,15.2 -3.6,4.1 -7.5,12.7 -11.6,25.8 l 0.1,1.6 3.3,-0.3 c 14.4,-16.1 25.3,-31.9 32.8,-47.3 42,-12.3 74,-24.4 96.2,-36.3 22.3,-1.9 39.3,-7.8 50.9,-17.5 l -0.2,-1.8 -8.4,2.5 -1.9,0.2 -0.2,-1.8 c 16.4,-2.5 27.7,-6.1 34,-11.1 31.9,-24.6 56,-42 72.3,-52.3 33.5,-24.6 55.3,-48.6 65.2,-71.9 1.8,-0.4 3.6,-0.8 5.6,-1.3 4.7,-0.2 7.3,-0.3 8,-0.5 -0.2,-0.9 0.2,-1.4 1.1,-1.6 7.5,-0.8 3.9,0.5 8.7,-0.6 l 12.6,-2.9 c -0.8,0.2 -1.1,0.6 -0.9,1.4 l 1.9,-1.2 c -0.4,0 -0.7,-0.1 -1,-0.2 l 2.1,-0.5 -1,0.6 c 1.4,0.2 2.9,0.1 4.6,-0.3 l 0.9,3.7 -57.3,91.1 -12.7,15.9 -6.2,20.8 1.2,-0.3 6.2,-2.6 -2,8.1 0.6,2.4 1.7,2.1 c -0.8,0.2 -1.1,0.7 -0.9,1.6 l 0.3,1.3 2.6,-0.6 c 3.8,-3.3 5.4,-6.3 4.8,-9 4.1,0.7 6.8,1 8.2,0.6 l 0.3,1.3 c -2.5,0.6 -3.8,2.6 -4,6 l 0.3,1.3 1.4,-0.3 c 20.8,-22.7 71.8,-100.4 112.7,-153.1 -1.3,-5.7 20,-13.6 64,-23.8 l 1.4,-0.3 c 1.6,6.9 -1.8,23.6 -10.2,50.1 -5.4,16 -8,24.8 -7.6,26.2 -7,21.3 -10.3,32.8 -9.9,34.6 l -15.6,51.1 c -10.1,26.2 -17.8,53.7 -23.2,82.7 0.9,-0.2 2.3,-0.1 4.3,0.4 L 603,597 c 0.2,0.9 0.8,1.2 1.7,1 l -0.9,-3.7 6.8,-0.2 c 2,-0.5 3.7,-3 5.1,-7.6 -0.3,-6.9 1.1,-10.6 4.2,-11.4 4.2,-16.4 6.8,-24.6 7.7,-24.9 3.9,-16.3 6.8,-25.6 8.7,-27.9 5.9,-21.2 10.2,-32.1 13,-32.8 l 0.6,2.6 -4.3,11.1 c -7.5,33.3 -15.1,59.6 -22.8,78.9 l 2.2,9.6 1.4,-0.3 c 18.6,-40 45.4,-119.2 80.3,-237.6 1,-10.4 6,-18.5 14.9,-24.2 l -2,-2.1 -0.3,-1.1 c 4,-0.9 6.8,-2.5 8.4,-4.7 -0.2,-0.9 -3.7,-2.2 -10.5,-4 l 17.4,-74.6 c 3.8,-3.4 6,-5.2 6.7,-5.2 l 0.3,3.8 c -0.9,0.1 -2.3,0.6 -3.9,1.7 l 3.3,4.7 c 6,-6.5 12.5,-12.1 19.6,-16.8 3.6,1 5.4,2.2 5.6,3.4 l 2.6,-0.2 C 788.6,220 808,209.6 827.1,203.3 l 0.2,2.5 c -3.5,5.3 -5.9,8 -7.2,8.1 0.2,1.8 0.7,3.4 1.6,4.8 0.3,3.3 -8.3,25.3 -25.9,66.1 -40.2,94.5 -73.9,164.4 -101.3,209.8 0.1,0.9 0.7,2.1 1.8,3.7 6.7,-1.6 11,-3.3 12.7,-4.9 l 1.2,-0.1 0.2,2.5 2.8,-0.2 2.5,-1.3 c 0.1,0.7 1,1 2.7,0.9 l 0.2,2.7 c 0.2,2.4 -1.2,6.2 -4.3,11.4 -2.9,3.1 -5.9,9.6 -9.1,19.5 l 0.1,1.3 2.6,-0.2 c 10.9,-12.2 19.2,-24.2 24.9,-36 31.9,-9.4 56.2,-18.5 73,-27.5 17.1,-1.5 30,-5.9 38.8,-13.3 l -0.1,-1.3 -6.5,1.9 -1.4,0.1 -0.1,-1.3 c 12.4,-1.8 21.1,-4.6 25.8,-8.3 24.2,-18.6 42.5,-31.9 54.9,-39.7 38.6,-28.1 56.6,-55.1 54.4,-81 z m -6.6,1.7 0.9,10.1 c -1.2,2.5 -2.5,3.8 -3.7,3.9 L 960.7,322 c 2.8,1 4.2,2 4.3,3.2 z m -757.2,-81.4 -1.7,0.1 -0.3,-3.1 6.9,-0.6 0.1,1.6 c -1.1,0.1 -2.8,0.7 -5,2 z m -33.7,337.1 c -4,-1.8 -7.6,-2.5 -10.7,-2.2 l -0.4,-4.9 c -0.2,-1.9 0.9,-3.2 3.3,-3.7 2.2,-0.2 3.5,1.4 3.7,4.6 5.8,-7.1 9,-10.7 9.6,-10.8 l 3.7,1.5 c -1.2,10 -4.3,15.1 -9.2,15.5 z M 534.2,204.2 c -1.7,0.2 -5.1,-5.1 -10,-15.6 l -0.3,-3.1 c 3.2,-0.3 6.5,4.9 10,15.6 z m -4.8,-37.3 -1.4,3.3 -48.9,-20.4 c 32.6,1.1 49.4,6.8 50.3,17.1 z m -206.5,177.3 -6.9,0.6 -0.3,-3.1 6.9,-0.6 z m -5.6,-106.5 1.7,-0.1 0.4,4.9 c -1.6,0.1 -3.7,2.5 -6.3,7.1 l -0.3,-3.4 c 3.1,-3.7 4.7,-6.5 4.5,-8.5 z m -14.5,34.2 0.6,6.5 -1.7,0.1 -0.6,-6.5 z m -7.6,12.2 3.3,-0.3 c -0.3,5.4 -1.8,8.3 -4.5,8.5 l -1.7,0.1 c 2.1,-3.6 3.1,-6.4 2.9,-8.3 z m -5.7,17 1.9,-0.2 0.1,1.6 -3.1,5.2 -3.3,0.3 -0.1,-1.6 c 3.3,-0.3 4.8,-2 4.5,-5.3 z m -5.6,15.3 -1,8.2 -1.7,0.1 -0.7,-8.1 z m -56.1,159.5 c -2.2,11.2 -4.6,16.9 -7.1,17.1 l -0.1,-1.6 c -0.6,-5.5 1.8,-10.7 7.2,-15.5 z m -10.3,22.3 0.1,1.6 c 0.2,2.2 -0.8,3.5 -3,3.6 l -0.1,-1.6 c -0.2,-1.9 0.8,-3.1 3,-3.6 z m -3,46.3 5.2,-0.5 0.2,1.8 c -1.3,0.1 -3,0.8 -5.1,2 l -3.3,0.3 c -0.2,-1.7 0.9,-3 3,-3.6 z m 148,-45.7 c -29.2,14.4 -46.4,24.2 -51.5,29.3 -31.6,11 -47.3,17.8 -47,20.5 -28.1,11.1 -46.6,19.3 -55.5,24.4 -2.1,0.2 -5.1,-0.6 -9.1,-2.4 -0.5,-5.7 2.1,-10.3 7.6,-14 4.9,-0.4 9.6,0.3 14.1,2.2 5.2,-2.7 14.3,-5.7 27.2,-8.9 l -0.3,-3.4 -10.4,0.9 c 1.3,-1.8 11.3,-6.5 30.1,-14.1 l 5.2,-0.5 0.1,1.6 c -8.9,0.8 -13.8,3.4 -14.9,8.1 0.2,2.1 1.4,3 3.6,2.8 6.7,-4.2 10,-6.7 9.9,-7.4 12.7,-2.4 47.8,-20.8 105.3,-55.1 l 0.3,3.1 c 0.1,1.5 -4.8,5.7 -14.7,12.9 z m -88.2,29 c 8.4,-0.7 15.6,-4.1 21.6,-10 2.4,-0.2 3.7,0.7 3.8,2.8 -4.1,0.4 -12,3.8 -23.5,10.4 l -1.7,0.1 z m 142.3,-109.3 -44.1,34.9 c -32.8,21.5 -50.4,32.3 -52.9,32.5 -52.2,28.7 -84.7,43.6 -97.3,44.7 l -1.9,0.2 c 1.6,-5.9 24.8,-53.4 69.8,-142.8 19.8,-1.7 51,-10.9 93.5,-27.7 l 10.4,-0.9 c 21.5,-1.9 37.6,2.3 48.2,12.3 l 0.6,6.5 c -8,23 -16.8,36.4 -26.3,40.3 z m -86.2,-48.5 7.1,-0.6 0.1,1.6 -7.1,0.6 z m 99.7,-16.9 5.2,-0.5 c 4.8,2.3 7.3,4.3 7.5,6.1 l 0.1,1.6 c -4.6,0.4 -8.9,-2 -12.8,-7.2 z m 14.1,-80.3 c -4.6,5.5 -17.2,14.9 -37.8,28.1 -6.8,0.6 -32.1,10.4 -75.9,29.6 -2.2,-1 -4.5,-1.4 -7,-1.2 l -0.3,-3.1 c -0.5,-6.3 2.3,-14.2 8.5,-23.8 3.4,-18 7.1,-28.3 11.2,-30.8 l 36.5,-82.1 c -0.4,-5.1 7.4,-9 23.4,-11.7 l 5.2,-0.5 0.4,4.7 c 15.7,-2.4 25.5,-3.8 29.3,-4.1 29,-2.5 44.1,3.4 45.3,17.5 l 3.3,-0.3 -0.7,-8.3 3.6,-0.3 c 8.5,4.7 13.1,10.4 13.7,17.1 0.4,4.6 -2.1,10.3 -7.4,17.1 -2.2,0.2 -3.5,-1.4 -3.7,-4.6 l -3.6,0.3 -0.8,10 c -14.7,22 -25.4,33.3 -32,33.9 -6,8.3 -9.7,12.4 -11.2,12.5 z m 22.4,57.5 c -3,-2 -5.4,-2.9 -7.2,-2.8 l -0.4,-4.9 3.3,-0.3 7.3,4.3 c 0.3,2.3 -0.7,3.5 -3,3.7 z m 23.2,27.5 c 3.2,1.3 5.1,2.7 5.5,4 l -1.6,0.4 0.1,0.1 c -0.3,0 -0.7,0.1 -1,0.2 l -2.4,1.9 z m 2.2,13.8 -0.3,-1.3 4.2,-1 0.3,1.3 z m 10.1,11.3 c 4.3,-0.7 6.4,-1 14.4,-2.8 l 0.3,1.3 -15.2,3.5 c 0.2,-0.7 0.4,-1.4 0.5,-2 z m 14.8,6.3 c -6.4,0.6 -5,-0.2 -15.2,2.1 l -0.3,-1.3 12.7,-4.1 6.1,-1.4 0.6,2.4 c -2.7,0.6 -0.7,0.6 -3.9,2.3 z m 13.5,-3.2 c -1.5,0.4 -2.7,-0.3 -3.4,-2 l 3.9,-0.9 c 1.7,-0.4 2.8,0.3 3.2,2 z m 36.6,-39.4 -0.3,-1.3 6.3,-1.5 0.6,2.4 z m 39.1,239.8 c 0.4,-1.8 0.5,-3.1 0.3,-4 l 1.4,-0.3 c 1.7,-0.4 2.7,0.2 3.1,1.8 l 0.3,1.3 z m 27.4,-229.5 -2.8,-0.5 c -4.5,1.8 -8.3,3.1 -11.4,3.8 l -2.6,0.6 c -1.5,0.4 -2.7,-0.2 -3.3,-1.8 l 18.3,-4.2 6,-2.8 2,2.3 c -2.9,0.6 -5,1.5 -6.2,2.6 z m 14.1,-4.5 -0.3,-1.3 c 0.9,-0.2 2.1,-0.9 3.4,-2.2 l 13,-3 0.3,1.3 c -6.9,1.7 -12.4,3.4 -16.4,5.2 z m 2,-26.3 c -0.9,0.2 -2.1,1 -3.6,2.2 -0.2,-0.9 -2,-0.9 -5.4,-0.1 -0.6,-2.5 9,-6 28.9,-10.6 l 2.8,-0.6 0.6,2.4 c -14,4.1 -21.8,6.4 -23.3,6.7 z m 35,-37.8 c -1.4,15.9 -7,24.9 -16.9,27.2 l -0.3,-1.3 -8.8,3.4 -3.9,0.9 c -2,0.5 -3.8,0.4 -5.4,-0.1 l -0.8,-3.5 c -0.3,-1.3 12.4,-18.9 38.2,-52.7 l 3,0.5 c 1.1,4.6 -0.6,13.1 -5.1,25.6 z m 61.9,-53 -1.2,0.1 -0.2,-2.5 5.2,-0.5 0.1,1.3 c -0.9,0.2 -2.2,0.7 -3.9,1.6 z M 721,491.4 c -3,-1.4 -5.7,-2 -8,-1.8 l -0.3,-3.8 c -0.1,-1.3 0.7,-2.2 2.4,-2.7 1.7,-0.2 2.7,1 2.9,3.6 4.3,-5.5 6.7,-8.3 7.2,-8.3 l 2.7,1.1 c -1,7.6 -3.3,11.6 -6.9,11.9 z m 273.4,-286 c -1.3,0.1 -3.8,-3.9 -7.7,-12 l -0.2,-2.5 c 2.5,-0.2 5.1,3.7 7.7,11.7 z m -3.6,-28.6 -1.2,2.6 -37,-15.5 c 24.7,0.8 37.5,5.1 38.2,12.9 z m -156.9,134.7 -5.2,0.5 -0.2,-2.5 5.2,-0.4 z m -4.3,-80.9 1.4,-0.1 0.3,3.8 c -1.3,0.1 -2.9,1.9 -4.8,5.4 l -0.2,-2.5 c 2.3,-2.9 3.4,-5.1 3.3,-6.6 z m -10.9,26 0.4,4.9 -1.4,0.1 -0.4,-4.9 z m -5.9,9.3 2.6,-0.2 c -0.3,4.2 -1.4,6.4 -3.3,6.6 l -1.4,0.1 c 1.5,-2.8 2.2,-5 2.1,-6.5 z m -4.2,12.8 1.2,-0.1 0.1,1.3 -2.3,4 -2.6,0.2 -0.1,-1.3 c 2.7,-0.2 3.9,-1.6 3.7,-4.1 z m -4.2,11.6 -0.9,6.4 -1.2,0.1 -0.5,-6.3 z m -42.7,121.3 c -1.7,8.4 -3.5,12.7 -5.4,12.9 l -0.1,-1.1 c -0.3,-4.2 1.5,-8.2 5.5,-11.8 z m -7.9,16.9 0.1,1.1 c 0.2,1.8 -0.6,2.8 -2.4,2.9 l -0.1,-1.3 c -0.1,-1.3 0.7,-2.2 2.4,-2.7 z m -2.2,35.2 4,-0.3 0.1,1.3 c -0.9,0.1 -2.3,0.6 -3.9,1.5 l -2.6,0.2 c -0.1,-1.4 0.7,-2.3 2.4,-2.7 z M 863.9,429 c -22,10.9 -35.1,18.3 -39.2,22.1 -24,8.4 -35.9,13.6 -35.7,15.7 -21.3,8.5 -35.3,14.6 -41.9,18.5 -1.6,0.1 -3.9,-0.5 -6.9,-1.9 -0.4,-4.3 1.6,-7.8 5.8,-10.4 3.8,-0.3 7.4,0.2 10.7,1.6 4,-2 10.9,-4.2 20.7,-6.7 l -0.2,-2.5 -8.2,0.6 c 1,-1.4 8.7,-5 23,-10.8 l 4,-0.3 0.1,1.1 c -6.8,0.6 -10.6,2.6 -11.4,6.2 0.1,1.6 1.1,2.4 2.8,2.2 5,-3.3 7.4,-5.2 7.4,-5.8 9.6,-1.7 36.2,-15.7 79.9,-41.9 l 0.2,2.5 c 0.1,1.1 -3.6,4.3 -11.1,9.8 z m -67,22 c 6.5,-0.6 12,-3.1 16.6,-7.5 1.7,-0.2 2.7,0.6 2.8,2.2 -3,0.3 -8.9,2.8 -17.8,7.6 l -1.4,0.1 z m 108.2,-83.1 -33.3,26.8 c -24.9,16.3 -38.4,24.5 -40.5,24.7 -39.6,21.8 -64.2,33.1 -73.9,33.9 l -1.4,0.1 c 1.2,-4.5 18.9,-40.6 53.1,-108.4 14.9,-1.3 38.5,-8.4 70.9,-21.2 l 8.1,-0.7 c 16.3,-1.4 28.5,1.8 36.5,9.5 l 0.4,4.9 c -6.1,17.2 -12.7,27.3 -19.9,30.4 z m -65.4,-36.8 5.2,-0.5 0.1,1.3 -5.2,0.5 z m 75.7,-12.9 4,-0.3 c 3.7,1.8 5.6,3.4 5.7,4.7 l 0.1,1.1 c -3.5,0.3 -6.8,-1.5 -9.8,-5.5 z m 10.5,-60.9 c -3.5,4.2 -13,11.4 -28.5,21.4 -5.2,0.5 -24.4,7.9 -57.6,22.3 -1.6,-0.6 -3.4,-0.8 -5.3,-0.7 l -0.2,-2.5 c -0.4,-4.8 1.7,-10.8 6.3,-18.1 2.6,-13.8 5.5,-21.5 8.5,-23.3 L 877,194 c -0.3,-3.7 5.6,-6.7 17.6,-9 l 4,-0.3 0.3,3.8 c 11.8,-1.9 19.2,-3 22.2,-3.3 22,-1.9 33.5,2.5 34.4,13.3 l 2.6,-0.2 -0.5,-6 2.6,-0.2 c 6.4,3.5 9.8,7.7 10.2,12.7 0.3,3.6 -1.5,8 -5.3,13.1 -1.7,0.2 -2.7,-1 -2.9,-3.6 l -2.6,0.2 -0.8,7.5 c -11.1,16.9 -19.2,25.6 -24.3,26 -4.5,6.1 -7.3,9.2 -8.6,9.3 z m 11.7,41.6 -0.3,-3.8 2.6,-0.2 5.6,3.4 c 0.1,1.6 -0.7,2.5 -2.4,2.7 -2.4,-1.5 -4.2,-2.2 -5.5,-2.1 z m -465.5,242.9 -2.6,0.6 -2.2,1.9 c 0.4,1.6 1.4,2.2 3.1,1.8 1.7,-0.4 2.4,-1.4 2,-3 z m -9.9,-19.7 0.3,1.3 c 1.7,-0.4 2.4,-1.4 2,-3 l -0.3,-1.3 c -1.6,0.4 -2.3,1.4 -2,3 z m 70.4,-167.5 3,-0.7 -0.6,-2.6 -3,0.7 z m 907.4,76.2 c -30.4,6.8 -34.2,5.6 -40.6,6.1 l 0.2,2.5 2.8,-0.2 1.5,-0.1 -0.4,-0.3 3.3,-1.3 c 30.1,-3.3 33.6,-2.1 33.3,-5.5 z m -163.7,21.7 0.2,2.5 h 0.4 l -0.2,-2.5 z m -18.8,-65.9 -2.7,-0.9 c -2.2,5.9 -3.3,9.4 -3.2,10.4 l 0.1,1.1 c 2.1,-0.1 4,-3.7 5.8,-10.6 z m 188.7,43.7 0.2,2.5 4.4,0.8 -0.2,-2.5 z m -206.9,25.3 -6.8,-0.8 -1.2,2.6 0.1,1.3 40.5,-3.4 -0.2,-2.5 z m -18.4,-88.7 -0.1,-1.3 -1.4,0.1 -2.5,1.6 1.4,2.4 c 1.9,-0.2 2.8,-1.1 2.6,-2.8 z m 244.5,45 1.9,-0.2 c 1.1,-0.1 1.6,-1 1.5,-2.6 l -1.1,-2.4 c -6.9,0.6 -10.1,0.9 -15.7,4 l -0.1,-1.3 -8.3,0.8 c -0.2,-2.5 -0.9,-3.8 -2,-3.7 l -4.3,0.4 c -5,0.4 -7.4,0.2 -9.9,2.1 -0.1,-0.9 -0.4,-1.3 -0.9,-1.3 l -4.8,0.4 -2.8,1.6 c -0.1,-0.9 -0.4,-1.3 -0.9,-1.3 l -1.7,1.5 -0.1,-1.3 -6.7,-0.5 -1.6,0.1 0.2,2.5 3.4,0.9 3.2,-0.2 c 1.1,0.7 2.3,0.9 3.7,0.8 l 2.8,-1.4 0.1,1.1 c -15.7,3.9 -15.6,3.2 -26.4,5 -1.2,-0.8 -2.1,-1.2 -2.7,-1.1 l -0.2,0.2 c -1.2,-0.1 -1.9,-0.9 -2,-2.2 l 5.6,-0.7 c 0.4,0 0.7,0.4 3.8,1 4.5,-2.2 4.7,-3.1 7.1,-3.3 l -0.2,-2.5 c -15.4,3 -9.2,1 -28.5,2.7 l -0.9,0.1 -0.2,-2.5 c 24.8,-3 16.5,-1.3 25,-3.7 0.1,0.9 0.4,1.3 0.9,1.3 1,-1 2.1,-1.5 3.4,-1.7 l 1.7,-0.1 c 8.7,-0.7 11.6,1 28.8,-3.8 l 0.1,1.1 2.8,-1.4 2.6,-0.2 c -0.2,-2.5 3.6,-2.9 4.9,-3 l -0.2,-2.7 c -30.2,6.1 -38.1,4.4 -46.5,6.8 l -0.1,-1.1 c -7.9,1.4 -8.2,0.8 -10.2,0.9 -0.6,0.1 -1.5,0.6 -2.5,1.6 -0.1,-0.9 -0.4,-1.3 -1,-1.3 -0.3,0 -0.4,0.1 -0.5,0.1 l -25.6,4.2 c -0.1,-0.7 -0.4,-1.1 -1,-1 -13.3,2.8 -9.7,3.3 -27.5,4.9 -0.8,0.1 -1.9,0.5 -3.3,1.4 -0.1,-0.7 -0.5,-1.1 -1.4,-1 l -10.9,0.9 -7.3,1.8 c -0.1,-0.7 -0.5,-1.1 -1.4,-1 -4.1,1.1 -7.7,1.8 -10.6,2 h -0.2 c -1.8,0.2 0.9,-0.5 -0.5,-1.1 l -2.2,1.3 c -3.2,0.3 -1.5,-0.2 -12.5,-0.1 -19.3,2.4 -17.2,2.7 -19.3,2.8 L 1255,416 c 0.1,0.7 -0.3,1.2 -1.1,1.2 -8.2,-1.1 -12.4,-2.4 -12.5,-3.9 1.1,-7.8 3,-11.8 5.7,-12 l 1.4,-0.1 -1.2,2.6 1.4,-0.1 c 2.6,-1.4 3.8,-2.7 3.7,-3.9 l -0.2,-2.7 -2.6,0.2 -0.2,-2.5 c -0.2,-1.9 0.1,-3.6 0.8,-5 l 5.9,-9.5 0.2,2.5 2.8,-0.2 -0.2,-2.5 -1.6,-2.3 c 2.1,-1.8 3.7,-2.8 5,-2.9 l -0.1,-1.3 -3.8,0.3 -0.3,-3.8 c 7.6,-15.8 11.2,-25 11,-27.6 l 2.7,1.1 c 1.7,-0.1 2.5,-1.1 2.4,-2.9 l -2.6,0.2 -0.1,-1.1 c -0.2,-1.9 0.2,-3.7 1,-5.3 4.1,-4.3 6,-8.6 5.6,-13.1 0.8,-0.1 1.2,0.3 1.3,1.2 3.5,-2 6.2,-7.3 8.2,-16.1 6.2,-11.2 15,-33.6 26.5,-67.1 22,-59.2 21.1,-65.5 24.2,-79.5 l -2.6,0.2 c 0.2,1.8 -0.2,3.5 -1,5.1 -1.8,-0.7 -3.2,-1.1 -4.2,-1 l -0.1,-1.1 c -0.4,-5.1 1.7,-11.2 6.5,-18.4 l 1.2,-0.1 2.2,8.6 2.6,-0.2 c -0.1,-0.6 0.6,-4 2,-10.3 -0.1,-1.3 -1.1,-2.1 -3.1,-2.2 l -2.5,1.6 c -0.2,-1.8 -0.1,-6.5 0.2,-14 l -1.3,0.1 c -2.2,-2.2 -3.3,-4 -3.4,-5.5 l -14.3,1.4 c -0.1,-1 -0.6,-2.5 -1.6,-4.4 -0.1,-1.3 3.1,-2.6 9.7,-3.9 l 2.9,1.1 2.7,-1.6 c 0.1,0.9 0.6,1.3 1.6,1.2 l 2.7,-1.6 c 0.1,0.9 0.6,1.3 1.6,1.2 l 1.3,-0.1 -0.2,-2.9 c -2,0.2 -7.3,0.2 -15.7,-0.1 l -2.7,1.8 -0.1,-1.6 c -67.1,5.5 -105.2,8.6 -114.3,9.5 -1.2,0.1 -5.9,0 -14.2,-0.2 0.1,1.1 -0.9,1.7 -2.9,1.9 l -2.9,-1.3 -9.8,2.5 c -2.3,0.2 -6.2,0.1 -11.6,-0.5 -1.5,1.2 -3.3,1.9 -5.5,2.1 -1.2,0.1 14.3,-0.8 28.7,-1.8 -1.5,1.2 -3.8,1.9 -7,2.2 -2.2,0.2 -4.1,-0.1 -5.7,-1 -2.2,1 -9.3,2.6 -21.2,5 l -2.9,-1.1 -46.8,7.2 c -1.8,-0.9 -3.9,-1.2 -6.3,-1 -2.5,0.2 -6.7,1.1 -12.5,2.7 l -22.6,9.4 1.7,2.8 c 1.1,-0.1 2.7,-0.7 4.6,-1.8 l 8,0.7 -1,7.5 c -7.4,3.3 -11.7,8.2 -12.9,14.4 -11.1,4.9 -16.6,8.4 -16.6,10.5 l 0.1,1.3 1.7,-0.1 3,-1.6 3.5,4.2 0.5,5.8 c 0.2,1.8 -18.5,41.1 -55.9,117.9 -32.4,74 -49.4,114.5 -51,121.8 -11.1,3.1 -17.5,7.6 -19.4,13.6 0.2,1.9 3.5,3.2 9.9,3.7 l 0.3,2.9 -2.9,4.8 0.5,5.8 c 0.3,3 8.4,5.3 24.3,6.9 -0.1,-1 0.4,-1.6 1.5,-1.7 0.3,3.6 -0.7,10.6 -3,21 l 1.7,-0.1 c 6.6,-9 9.7,-15.2 9.4,-18.6 l 1.4,-0.1 c 1.6,-0.1 3.3,1.7 5.3,5.6 -2,0.8 -9,16.7 -21,47.8 l 1.7,2.8 1.7,-0.1 c 14.7,-37.2 23.9,-57.8 27.7,-61.7 19.3,-1.7 52.7,-5.1 100.1,-10.2 l 3,-1.8 c 0.1,1 0.7,1.5 1.8,1.4 l 3.1,-0.3 3,-1.8 c 0.1,1 0.7,1.5 1.8,1.4 l 35.9,-3.1 c 9.5,-0.8 14,-3.7 13.6,-8.6 -0.1,-1.3 5.5,-2.8 16.8,-4.4 1.1,-0.1 2.7,0.2 4.9,0.9 -0.1,-0.9 5.6,-1.8 17,-2.8 0.3,-6 2.2,-9.2 5.6,-9.5 l -0.3,-2.9 c -3.2,0.3 -6.8,1.1 -11,2.5 -7.5,-0.4 -12.3,-1 -14.3,-1.7 -2,1.1 -3.5,1.7 -4.6,1.8 l -25,0.8 -3,1.6 c -0.1,-0.9 -0.7,-1.3 -1.8,-1.2 l -1.4,0.1 -3.2,1.6 c -0.1,-0.9 -2.7,-1.6 -7.9,-2.3 l -3.2,1.9 -6.2,0.5 -0.1,-1.6 c 32.2,-3.5 48.1,-7.9 47.7,-13.1 2.1,-0.2 3.2,0.8 3.4,2.9 l 9.4,-2.4 -0.3,-2.9 -77.1,2.1 c 0.1,1 -0.4,1.6 -1.5,1.7 l -9.4,-0.8 c -2.4,0.2 -4.4,0.9 -6,2.1 l -3.5,-1.3 c -9.7,0.8 -16.9,2 -21.7,3.5 -6.6,-0.5 -13.9,-0.4 -22,0.3 l -17.3,1.5 -8,-0.9 c -0.4,-5.1 9.5,-30.2 29.9,-75.2 5.9,-15.2 11.3,-24.7 16.5,-28.3 1.1,-0.1 2.7,0.3 4.9,1.2 l 12.3,-4.2 6.3,1 c 10.6,-0.9 22.9,-3.9 37,-9.1 3.5,-0.3 6.1,-0.1 8,0.7 l 9.4,-2.2 28,-2.4 c 11.9,-1 24.8,-3.6 38.8,-7.9 l -0.3,-2.9 c -5.2,0.5 -7.9,-0.4 -8.1,-2.5 -0.3,-3.9 -4.1,-5.5 -11.4,-4.9 l -0.3,-2.9 7.7,-2.2 20.2,-1.7 -0.3,-2.9 c -0.8,0.1 -4.9,0 -12.5,-0.3 l -0.3,-3.1 7.8,-0.7 c 2.1,-0.2 3,-1.2 2.8,-3.2 -10.5,0.3 -15.8,-0.2 -15.9,-1.6 -73.2,3.6 -109.9,4.3 -110.1,2 -1.1,0.1 -2.6,0.8 -4.6,2 l -1.9,-3 c 19.4,-41.2 30.8,-62 34.1,-62.3 0.1,1.6 -0.7,4.2 -2.5,7.7 l 0.1,1.3 3.1,-0.3 c 7.7,-18.4 14.2,-27.9 19.6,-28.3 23,-2 -3.2,-3.5 46,-11.2 2,0.9 3.4,1.3 4.4,1.2 19.3,-3.9 46.2,-8 80.7,-12.2 l -0.2,-2.9 -18.4,1.7 -0.2,-2.9 c 2.2,-0.2 4,-0.9 5.5,-2.1 l 0.1,1.6 c 1,-0.1 2.4,-0.8 4.2,-2 3.2,-0.3 5.6,0 7.3,0.9 6.4,-1.7 11.6,-2.7 15.4,-3.1 l 11.5,-1.1 c 2.8,-1.8 4.1,-3.4 4,-4.9 l -0.1,-1.3 c -2.9,0.3 -6.2,0.1 -10.1,-0.6 -0.1,-1.6 0.7,-2.7 2.6,-3.2 l 21.4,-2 9.8,-2.5 c 0.1,1.1 0.6,1.5 1.4,1.5 1,-0.1 2.4,-0.8 4.2,-2 0.5,0.1 1.1,0.1 1.6,0.2 -1.3,2.7 -2.8,6.6 -4.3,11.7 l -2.8,0.2 c -0.2,-1.9 -0.7,-3.6 -1.6,-5.1 l -1.4,0.1 c -26,72.4 -37.6,106.1 -61.6,161.7 -4.4,14.2 -8.1,22.1 -11.3,23.8 0.1,1.6 1.1,2.4 2.8,2.2 0.6,7 -1,13.9 -4.9,20.7 -11.1,32 -18.5,49.5 -22.3,52.7 l 2.5,15.1 c 0.1,1.6 -0.7,2.5 -2.4,2.7 l -2.6,0.2 c -0.4,-4.2 -1.9,-6.2 -4.6,-5.9 l -1.4,0.1 c -3.4,5.3 -6,11.4 -7.7,18.5 l 2.6,-0.2 c 3.5,-2.3 5.1,-5 4.8,-8.1 l 5.2,-0.5 3,1.1 c -2.4,3.8 -3.5,6.8 -3.3,9.1 l 1.4,2.4 -3.4,8 0.1,1.3 c 3,-0.3 6.3,0.7 9.8,2.8 2.4,-0.2 5,-1.3 7.9,-3.2 3,-0.3 14.2,-0.4 33.5,-0.4 l 9.7,-3.3 c 11.8,-0.1 13.7,0.2 23.9,-0.7 l 4.2,-0.4 2.2,-1.5 0.1,1.3 c 10.7,-0.9 11.4,-0.2 19.8,0.8 l 0.1,1.3 -5.9,0.5 0.2,2.5 c 1.8,-0.2 3.4,-0.7 4.7,-1.8 1.5,-0.1 2.4,0.7 2.5,2.5 -2.4,0.2 -5.1,0.8 -8.1,1.8 l -2.6,-0.9 c -4.1,1.1 -3.2,1.4 -6,1.6 l -4.1,-0.8 c 0.1,0.7 -0.3,1.2 -1,1.2 0.1,1.6 1,2.4 2.5,2.3 l 4.2,-0.4 21.9,-1.9 8.3,-1.8 c 0.1,0.7 0.4,1.1 1.1,1 l 4,-1.5 7.5,-0.6 c 5.8,-0.5 5.7,-0.9 18.3,-2.9 -0.1,-0.8 0.2,-1.1 0.8,-1.2 l 0.1,1.1 c 20.5,-3.5 21.8,-3.7 25.1,-4.8 l 0.3,0.6 c 5.1,-1.2 2.2,-0.9 3.6,-1.9 0.1,0.9 0.4,1.3 0.9,1.3 l 3.6,-0.3 -0.2,-2.7 -7.3,-0.1 -0.1,-0.2 c -0.3,0.1 -0.5,0.1 -0.8,0.2 h -1 v 0.2 c -4.9,1 -5,0.3 -8.2,0.6 l -18.3,1 -0.1,-1.3 10.2,-1.4 3.7,-0.3 2.1,-1.5 0.1,1.3 c 14.4,-1.2 19.5,2.4 86.1,-11.8 3.6,-0.3 3.3,-3.3 5.6,-9.5 -1.2,0.1 -2.4,-0.2 -3.5,-0.8 -5.5,2.1 -8.4,1.1 -19,2.8 -0.9,0.1 -1.6,-0.7 -1.9,-2.3 l -0.1,-1.1 10.2,0.3 c 1.9,-0.2 5.6,-0.5 11.1,-3.6 0,0.9 -2,1.4 -0.8,1.3 z m -492.4,7.9 -4.7,0.4 c -0.2,-1.9 2.3,-9.1 7.5,-21.4 l 3.1,-0.3 c 0.1,2.9 -1.8,10 -5.9,21.3 z m 5.7,-22.8 -0.1,-1.3 c -0.1,-1.6 0.9,-2.7 3.1,-3.2 l 0.1,1.3 c 0.1,1.9 -0.9,3 -3.1,3.2 z m 62.5,48.3 0.1,1.3 -7.8,0.7 -0.1,-1.3 z m -9.4,-0.8 c 0.1,1.6 -2.3,3.4 -7.5,5.2 l -9.6,-0.7 -3.1,0.3 -0.3,-2.9 z m 63.2,-290.9 -4.7,0.4 -0.1,-1.6 c -0.1,-1.6 0.8,-2.7 2.8,-3.2 l 1.7,-0.1 3.2,1.3 c 0.1,1.9 -0.8,3 -2.9,3.2 z m 71.5,-14 1.5,-0.1 0.2,2.9 -4.3,0.4 c -0.1,-1.6 0.7,-2.7 2.6,-3.2 z m -18,6.3 -7.1,-0.8 -0.1,-1.3 c 9.3,-0.8 12.4,-1.8 18.1,-3.4 0.1,1.1 1.1,1.5 2.9,1.3 l 0.2,2.9 -2.8,0.3 c -2.2,0.2 -4.1,-0.1 -5.7,-1 -1.7,1.1 -3.5,1.8 -5.5,2 z m 8.9,25.9 -0.1,-1.3 11.5,-1.1 0.1,1.3 z m 12.3,-10 -0.1,-1.6 5.6,-0.5 0.1,1.6 z m 1.3,-19.6 -1.5,0.1 1.3,-3.1 12.8,-1.2 0.1,1.6 c -3.3,0.3 -7.6,1.2 -12.7,2.6 z m 6.5,27.6 -0.2,-2.9 5.6,-0.5 c 1.9,-0.2 2.9,0.7 3,2.7 z m 33.9,-46.2 -7.2,2 -1.3,0.1 c -3.4,0.3 -7.8,0.2 -13,-0.3 9.3,-0.6 18.2,-1.3 21.5,-1.8 z m -7.7,32 0.1,1.3 -9.9,0.9 -0.1,-1.3 z m 16.2,7.7 c -0.1,-1.2 -2,-2 -5.9,-2.4 l -9.9,2.8 -7.6,0.3 c -1.7,-1.2 -2.6,-2 -2.7,-2.6 l 8.8,0.5 19.8,-3.2 10.1,0.4 0.1,1.6 c -5,0.5 -9.2,1.4 -12.7,2.6 z M 1321.8,137 c 1.2,0.1 2,0.1 2.3,0.1 3.5,-3.4 7.4,-6.1 11.9,-8 -3.6,15.8 -9.2,27.5 -16.9,35.1 l -5.6,-3.4 c 4.7,-11.9 7.5,-19.8 8.3,-23.8 z m -17.2,29.5 1.4,-0.1 c -1.9,3.6 -3.6,5.5 -5,5.6 l -0.3,-3.8 c 0.9,0 2.2,-0.6 3.9,-1.7 z m -11.1,26.5 c 2.7,-10.8 5.3,-16.9 7.7,-18.5 l 0.1,1.3 c -1.4,10 -3.6,15.3 -6.5,15.7 l 0.5,6.3 c -2.4,3.4 -3.5,6 -3.4,8 l -1.4,0.1 -0.8,-8.7 c 1.6,-0.2 2.9,-1.6 3.8,-4.2 z m -4.3,14.4 c 0.1,1.5 -0.9,5 -2.9,10.4 l -1.4,0.1 -0.3,-3.8 c 1.9,-4.4 3.5,-6.6 4.6,-6.7 z m -80.7,234.2 -0.1,-1.1 2.6,-0.2 0.3,3.8 c -1.4,0.1 -2.4,-0.7 -2.8,-2.5 z m 115.3,3 c -0.1,-0.9 -0.5,-1.3 -1.4,-1.2 l -6.5,0.6 -0.1,-1.3 h 0.6 l 15.4,-1.3 0.1,1.3 c -4.5,0.2 -7.2,0.9 -8.1,1.9 z m -7.7,-3.2 c 0.6,0.3 0.3,0.6 0,0.8 -0.3,-0.1 -0.7,-0.4 0,-0.8 z m 0.8,-18 -8.6,0.7 -0.1,-1.3 7.8,-0.7 6.8,-1.7 c 0.1,0.8 0.5,1.1 1.4,1 8.1,-1.4 7.3,-1.8 11.2,-2.1 1.3,-0.1 2.1,0.7 2.2,2.3 z m 30.1,-2.6 c -4.8,-0.5 -5.1,-0.9 -8.5,-0.6 l -0.1,-1.1 7.7,-0.7 0.1,1.1 c -0.8,0.1 2.1,0.3 0.8,1.3 z m 0.6,-1.4 -0.1,-1.1 4.2,-0.4 0.1,1.1 z m 9.3,-0.8 -0.1,-1.1 c 0.7,-0.1 1.7,-0.6 3,-1.6 2.1,-0.2 3.2,1.2 3.4,2.8 z m 11.9,-1.5 -0.1,-1.3 5.1,-0.4 0.1,1.3 z m 7.1,-0.6 c -0.1,-1.5 0.5,-2.4 1.8,-2.6 l 1.7,2.2 c -0.1,-0.7 0.2,-1.1 0.8,-1.2 l 1.3,2.4 z m -75.5,32.6 -0.2,-2.5 -0.8,0.1 0.2,2.5 z m 175.7,-45.5 c 0.8,-0.5 1.2,-1 -0.7,-1.3 -0.9,1 1,1.3 -1,1.4 l 0.1,0.9 c 0.2,-0.2 0.7,-0.5 1.1,-0.8 l -1.1,0.9 v 0.1 l -2.1,2.7 4.2,-1.5 h 0.5 l -0.2,-2.5 z m 7.3,5.7 -0.8,0.1 0.2,2.5 5.9,-0.5 c -0.1,-1.6 -4,-2.1 -5.3,-2.1 z m -9.1,-4.4 0.1,-0.1 v -0.1 c 0,0 -0.1,0.1 -0.1,0.2 z"
           inkscape:connector-curvature="0" />
        <path
           id="path4875"
           d="m 1090.4,219.8 0.1,1.6 3.3,-0.3 c -0.1,-1 0.3,-2.6 1,-4.6 l -0.3,-2.9 c -1.4,0.1 -2.8,2.2 -4.1,6.2 z m -31.6,-76 -0.3,-2.9 -4.7,0.4 0.3,2.9 z m -91.7,171.7 c -0.2,-2.7 -8.6,-13.2 -25.2,-31.7 -0.3,-3.4 5.4,-8.5 17.1,-15.2 l 33.4,-29.1 c 7.5,-9.5 11.9,-24.9 13.2,-46.3 l -0.4,-4.9 c -1.3,-14.8 -12,-26.7 -32.3,-35.8 -12,-8.1 -33.6,-12.6 -64.8,-13.4 -25.8,2.2 -59.5,11.4 -101,27.7 -11.4,8.2 -24.4,16.4 -39,24.6 l 0.2,2.5 c 0.9,-0.1 2.3,-0.6 3.9,-1.7 1.7,-0.2 2.7,0.6 2.8,2.2 l 2.5,-1.3 1.2,-0.1 0.1,1.1 c 0.1,1.3 -8.9,8.4 -27.1,21.1 l 1.4,2.6 -1.2,0.1 -3,-1.1 c 0.1,0.9 -1.2,1.5 -3.7,1.7 l 0.1,1.1 2.9,3.6 c -0.9,0.1 -2.3,-0.3 -4.2,-1 -4.2,0.4 -8.3,2.6 -12.4,6.8 l 1.7,-7.4 c 6.1,-26.3 10.3,-49.6 12.5,-69.8 l -0.3,-1.3 c -4.2,-2.7 -8.3,-6.5 -12.1,-11.3 0.1,-3.1 0.1,-4.9 0,-5.3 l -0.3,-1.1 -1.2,0.3 c -13.2,19.8 -38.6,53.6 -76.3,101.4 -28.7,34 -43.5,52.9 -44.4,56.7 -11.7,12.1 -17.3,19.4 -16.7,21.9 -3.1,2 -4.4,4 -3.9,6.2 -0.9,0.2 -1.5,-0.1 -1.7,-1 -5,8.1 -12.4,13.3 -22.3,15.6 l -10.4,2.4 c -1.4,0.3 -2.1,1.3 -2,3 l 0.3,1.3 3.9,-0.9 0.3,1.1 -8.8,3.4 -15.6,3.6 -8.2,0.5 c -1.2,1.2 6.5,-0.1 3.5,0.6 l -10.2,2.4 c -6.2,1.4 -9.6,0.9 -10.2,-1.6 L 508,350 c 0.2,1.1 0.3,1.9 0.1,2.6 l -0.6,-2.5 -8.2,1.9 c -0.6,-3.8 -11.7,-17.6 -33.2,-41.4 -0.4,-4.6 7.2,-11.3 22.7,-20 l 43.8,-38.5 c 9.8,-12.6 15.6,-32.8 17.5,-60.6 l -0.6,-6.5 c -1.7,-19.6 -15.9,-35.4 -42.6,-47.6 -15.8,-10.7 -44.2,-16.4 -85.2,-17.3 -34,2.9 -78.4,15 -133,36.1 -15,10.9 -32.1,21.7 -51.3,32.4 l 0.3,3.4 c 1.3,-0.1 3,-0.8 5.1,-2 2.2,-0.2 3.4,0.8 3.6,2.8 l 3.4,-1.9 1.7,-0.1 0.1,1.6 c 0.1,1.6 -11.8,10.9 -35.9,27.9 l 1.9,3 -1.7,0.1 -3.7,-1.3 c 0.1,1 -1.6,1.7 -5.1,2 l 0.2,1.8 4,4.4 c -1.3,0.1 -3.1,-0.3 -5.4,-1.1 -7.8,0.7 -15.4,6.3 -22.9,16.9 l 1.9,3 c 6.5,-6 10.3,-9 11.4,-9.1 l 0.4,4.9 c -1.1,0.1 -2.8,0.8 -5.1,2 l 4.1,6.2 c 7.9,-8.5 16.6,-15.8 26.1,-21.9 4.7,1.2 7.2,2.7 7.3,4.3 l 3.6,-0.3 c 25.8,-19.1 51.3,-32.9 76.6,-41.4 l 0.3,3.4 c -4.7,7 -7.9,10.6 -9.6,10.8 0.2,2.4 1,4.5 2.5,6.3 0.4,4.3 -11.1,33.3 -34.4,86.9 -52.9,124.6 -97.3,216.8 -133.4,276.4 0.1,1.2 0.8,2.8 2.1,4.8 8.9,-2.1 14.5,-4.3 16.9,-6.4 l 1.9,-0.2 0.3,3.4 3.3,-0.3 3.4,-1.9 c 0.1,1 1.2,1.5 3.5,1.3 l 0.3,3.4 c 0.3,3.3 -1.6,8.3 -5.6,15.2 -3.6,4.1 -7.5,12.7 -11.6,25.8 l 0.1,1.6 3.3,-0.3 c 14.4,-16.1 25.3,-31.9 32.8,-47.3 42,-12.3 74,-24.4 96.2,-36.3 22.3,-1.9 39.3,-7.8 50.9,-17.5 l -0.2,-1.8 -8.4,2.5 -1.9,0.2 -0.2,-1.8 c 16.4,-2.5 27.7,-6.1 34,-11.1 31.9,-24.6 56,-42 72.3,-52.3 33.5,-24.6 55.3,-48.6 65.2,-71.9 1.8,-0.4 3.6,-0.8 5.6,-1.3 4.7,-0.2 7.3,-0.3 8,-0.5 -0.2,-0.9 0.2,-1.4 1.1,-1.6 7.5,-0.8 3.9,0.5 8.7,-0.6 l 12.6,-2.9 2.1,-0.5 -1,0.6 c 1.4,0.2 2.9,0.1 4.6,-0.3 l 0.9,3.7 -57.3,91.1 -12.7,15.9 -6.2,20.8 1.2,-0.3 6.2,-2.6 -2,8.1 0.6,2.4 1.7,2.1 c -0.8,0.2 -1.1,0.7 -0.9,1.6 l 0.3,1.3 2.6,-0.6 c 3.8,-3.3 5.4,-6.3 4.8,-9 4.1,0.7 6.8,1 8.2,0.6 l 0.3,1.3 c -2.5,0.6 -3.8,2.6 -4,6 l 0.3,1.3 1.4,-0.3 c 20.8,-22.7 71.8,-100.4 112.7,-153.1 -1.3,-5.7 20,-13.6 64,-23.8 l 1.4,-0.3 c 1.6,6.9 -1.8,23.6 -10.2,50.1 -5.4,16 -8,24.8 -7.6,26.2 -7,21.3 -10.3,32.8 -9.9,34.6 l -15.6,51.1 c -10.1,26.2 -17.8,53.7 -23.2,82.7 0.9,-0.2 2.3,-0.1 4.3,0.4 l 2.2,-1.9 c 0.2,0.9 0.8,1.2 1.7,1 l -0.9,-3.7 6.8,-0.2 c 2,-0.5 3.7,-3 5.1,-7.6 -0.3,-6.9 1.1,-10.6 4.2,-11.4 4.2,-16.4 6.8,-24.6 7.7,-24.9 3.9,-16.3 6.8,-25.6 8.7,-27.9 5.9,-21.2 10.2,-32.1 13,-32.8 l 0.6,2.6 -4.3,11.1 c -7.5,33.3 -15.1,59.6 -22.8,78.9 l 2.2,9.6 1.4,-0.3 c 18.6,-40 45.4,-119.2 80.3,-237.6 1,-10.4 6,-18.5 14.9,-24.2 l -2,-2.1 -0.3,-1.1 c 4,-0.9 6.8,-2.5 8.4,-4.7 -0.2,-0.9 -3.7,-2.2 -10.5,-4 l 17.4,-74.6 c 3.8,-3.4 6,-5.2 6.7,-5.2 l 0.3,3.8 c -0.9,0.1 -2.3,0.6 -3.9,1.7 l 3.3,4.7 c 6,-6.5 12.5,-12.1 19.6,-16.8 3.6,1 5.4,2.2 5.6,3.4 l 2.6,-0.2 c 19.8,-14.5 39.2,-24.9 58.3,-31.2 l 0.2,2.5 c -3.5,5.3 -5.9,8 -7.2,8.1 0.2,1.8 0.7,3.4 1.6,4.8 0.3,3.3 -8.3,25.3 -25.9,66.1 -40.2,94.5 -73.9,164.4 -101.3,209.8 0.1,0.9 0.7,2.1 1.8,3.7 6.7,-1.6 11,-3.3 12.7,-4.9 l 1.2,-0.1 0.2,2.5 2.8,-0.2 2.5,-1.3 c 0.1,0.7 1,1 2.7,0.9 l 0.2,2.7 c 0.2,2.4 -1.2,6.2 -4.3,11.4 -2.9,3.1 -5.9,9.6 -9.1,19.5 l 0.1,1.3 2.6,-0.2 c 10.9,-12.2 19.2,-24.2 24.9,-36 31.9,-9.4 56.2,-18.5 73,-27.5 17.1,-1.5 30,-5.9 38.8,-13.3 l -0.1,-1.3 -6.5,1.9 -1.4,0.1 -0.1,-1.3 c 12.4,-1.8 21.1,-4.6 25.8,-8.3 24.2,-18.6 42.5,-31.9 54.9,-39.7 38.6,-28.1 56.6,-55.1 54.4,-81 z m -6.6,1.7 0.9,10.1 c -1.2,2.5 -2.5,3.8 -3.7,3.9 L 956.2,314 c 2.8,1 4.2,2 4.3,3.2 z m -757.2,-81.4 -1.7,0.1 -0.3,-3.1 6.9,-0.6 0.1,1.6 c -1.1,0.1 -2.8,0.7 -5,2 z m -33.7,337.1 c -4,-1.8 -7.6,-2.5 -10.7,-2.2 l -0.4,-4.9 c -0.2,-1.9 0.9,-3.2 3.3,-3.7 2.2,-0.2 3.5,1.4 3.7,4.6 5.8,-7.1 9,-10.7 9.6,-10.8 l 3.7,1.5 c -1.2,10 -4.3,15.1 -9.2,15.5 z M 529.7,196.2 c -1.7,0.2 -5.1,-5.1 -10,-15.6 l -0.3,-3.1 c 3.2,-0.3 6.5,4.9 10,15.6 z m -4.8,-37.3 -1.4,3.3 -48.9,-20.4 c 32.6,1.1 49.4,6.8 50.3,17.1 z m -206.5,177.3 -6.9,0.6 -0.3,-3.1 6.9,-0.6 z m -5.6,-106.5 1.7,-0.1 0.4,4.9 c -1.6,0.1 -3.7,2.5 -6.3,7.1 l -0.3,-3.4 c 3.1,-3.7 4.7,-6.5 4.5,-8.5 z m -14.5,34.2 0.6,6.5 -1.7,0.1 -0.6,-6.5 z m -7.6,12.2 3.3,-0.3 c -0.3,5.4 -1.8,8.3 -4.5,8.5 l -1.7,0.1 c 2.1,-3.6 3.1,-6.4 2.9,-8.3 z m -5.7,17 1.9,-0.2 0.1,1.6 -3.1,5.2 -3.3,0.3 -0.1,-1.6 c 3.3,-0.3 4.8,-2 4.5,-5.3 z m -5.6,15.3 -1,8.2 -1.7,0.1 -0.7,-8.1 z m -56.1,159.5 c -2.2,11.2 -4.6,16.9 -7.1,17.1 l -0.1,-1.6 c -0.6,-5.5 1.8,-10.7 7.2,-15.5 z m -10.3,22.3 0.1,1.6 c 0.2,2.2 -0.8,3.5 -3,3.6 l -0.1,-1.6 c -0.2,-1.9 0.8,-3.1 3,-3.6 z m -3,46.3 5.2,-0.5 0.2,1.8 c -1.3,0.1 -3,0.8 -5.1,2 l -3.3,0.3 c -0.2,-1.7 0.9,-3 3,-3.6 z m 148,-45.7 c -29.2,14.4 -46.4,24.2 -51.5,29.3 -31.6,11 -47.3,17.8 -47,20.5 -28.1,11.1 -46.6,19.3 -55.5,24.4 -2.1,0.2 -5.1,-0.6 -9.1,-2.4 -0.5,-5.7 2.1,-10.3 7.6,-14 4.9,-0.4 9.6,0.3 14.1,2.2 5.2,-2.7 14.3,-5.7 27.2,-8.9 l -0.3,-3.4 -10.4,0.9 c 1.3,-1.8 11.3,-6.5 30.1,-14.1 l 5.2,-0.5 0.1,1.6 c -8.9,0.8 -13.8,3.4 -14.9,8.1 0.2,2.1 1.4,3 3.6,2.8 6.7,-4.2 10,-6.7 9.9,-7.4 12.7,-2.4 47.8,-20.8 105.3,-55.1 l 0.3,3.1 c 0.1,1.5 -4.8,5.7 -14.7,12.9 z m -88.2,29 c 8.4,-0.7 15.6,-4.1 21.6,-10 2.4,-0.2 3.7,0.7 3.8,2.8 -4.1,0.4 -12,3.8 -23.5,10.4 l -1.7,0.1 z m 142.3,-109.3 -44.1,35 c -32.8,21.5 -50.4,32.3 -53,32.5 -52.2,28.7 -84.7,43.6 -97.3,44.7 l -1.9,0.2 c 1.6,-5.9 24.8,-53.4 69.8,-142.8 19.8,-1.7 51,-10.9 93.5,-27.7 l 10.4,-0.9 c 21.5,-1.9 37.6,2.3 48.2,12.3 l 0.6,6.5 c -7.9,22.9 -16.7,36.3 -26.2,40.2 z m -86.2,-48.5 7.1,-0.6 0.1,1.6 -7.1,0.6 z m 99.7,-16.9 5.2,-0.5 c 4.8,2.3 7.3,4.3 7.5,6.1 l 0.1,1.6 c -4.6,0.4 -8.9,-2 -12.8,-7.2 z m 14.1,-80.3 c -4.6,5.5 -17.2,14.9 -37.8,28.1 -6.8,0.6 -32.1,10.4 -75.9,29.6 -2.2,-1 -4.5,-1.4 -7,-1.2 l -0.3,-3.1 c -0.5,-6.3 2.3,-14.2 8.5,-23.8 3.4,-18 7.1,-28.3 11.2,-30.8 l 36.5,-82.1 c -0.4,-5.1 7.4,-9 23.4,-11.7 l 5.2,-0.5 0.4,4.7 c 15.7,-2.4 25.5,-3.8 29.3,-4.1 29,-2.5 44.1,3.4 45.3,17.5 l 3.3,-0.3 -0.7,-8.3 3.6,-0.3 c 8.5,4.7 13.1,10.4 13.7,17.1 0.4,4.6 -2.1,10.3 -7.4,17.1 -2.2,0.2 -3.5,-1.4 -3.7,-4.6 l -3.6,0.3 -0.8,10 c -14.7,22 -25.4,33.3 -32,33.9 -6,8.3 -9.7,12.4 -11.2,12.5 z m 22.4,57.5 c -3,-2 -5.4,-2.9 -7.2,-2.8 l -0.4,-4.9 3.3,-0.3 7.3,4.3 c 0.3,2.3 -0.7,3.5 -3,3.7 z m 23.2,27.5 c 3.2,1.3 5.1,2.7 5.5,4 l -1.6,0.4 0.1,0.1 c -0.3,0 -0.7,0.1 -1,0.2 l -2.4,1.9 z m 2.2,13.8 -0.3,-1.3 4.2,-1 0.3,1.3 z m 10.1,11.3 c 4.3,-0.7 6.4,-1 14.4,-2.8 l 0.3,1.3 -15.2,3.5 c 0.2,-0.7 0.4,-1.4 0.5,-2 z m 14.8,6.3 c -6.4,0.6 -5,-0.2 -15.2,2.1 l -0.3,-1.3 12.8,-4.1 6.1,-1.4 0.6,2.4 c -2.8,0.6 -0.8,0.6 -4,2.3 z m 13.5,-3.2 c -1.5,0.4 -2.7,-0.3 -3.4,-2 l 3.9,-0.9 c 1.7,-0.4 2.8,0.3 3.2,2 z m 36.6,-39.4 -0.3,-1.3 6.3,-1.5 0.6,2.4 z m 39.1,239.8 c 0.4,-1.8 0.5,-3.1 0.3,-4 l 1.4,-0.3 c 1.7,-0.4 2.7,0.2 3.1,1.8 l 0.3,1.3 z m 27.4,-229.5 -2.8,-0.5 c -4.5,1.8 -8.3,3.1 -11.4,3.8 l -2.6,0.6 c -1.5,0.4 -2.7,-0.2 -3.3,-1.8 l 18.3,-4.2 6,-2.8 2,2.3 c -2.9,0.6 -5,1.5 -6.2,2.6 z m 14.1,-4.5 -0.3,-1.3 c 0.9,-0.2 2.1,-0.9 3.4,-2.2 l 13,-3 0.3,1.3 c -6.9,1.7 -12.4,3.4 -16.4,5.2 z m 2,-26.3 c -0.9,0.2 -2.1,1 -3.6,2.2 -0.2,-0.9 -2,-0.9 -5.4,-0.1 -0.6,-2.5 9,-6 28.9,-10.6 l 2.8,-0.6 0.6,2.4 c -14,4.1 -21.8,6.4 -23.3,6.7 z m 35,-37.8 c -1.4,15.9 -7,24.9 -16.9,27.2 l -0.3,-1.3 -8.8,3.4 -3.9,0.9 c -2,0.5 -3.8,0.4 -5.4,-0.1 l -0.8,-3.5 c -0.3,-1.3 12.4,-18.9 38.2,-52.7 l 3,0.5 c 1.1,4.6 -0.6,13.1 -5.1,25.6 z m 61.9,-53 -1.2,0.1 -0.2,-2.5 5.2,-0.5 0.1,1.3 c -0.9,0.2 -2.2,0.7 -3.9,1.6 z m -25.5,256.1 c -3,-1.4 -5.7,-2 -8,-1.8 l -0.3,-3.8 c -0.1,-1.3 0.7,-2.2 2.4,-2.7 1.7,-0.2 2.7,1 2.9,3.6 4.3,-5.5 6.7,-8.3 7.2,-8.3 l 2.7,1.1 c -1,7.6 -3.3,11.6 -6.9,11.9 z m 273.4,-286 c -1.3,0.1 -3.8,-3.9 -7.7,-12 l -0.2,-2.5 c 2.5,-0.2 5.1,3.7 7.7,11.7 z m -3.6,-28.6 -1.2,2.6 -37,-15.5 c 24.7,0.8 37.5,5.1 38.2,12.9 z m -156.9,134.7 -5.2,0.5 -0.2,-2.5 5.2,-0.5 z m -4.3,-80.9 1.4,-0.1 0.3,3.8 c -1.3,0.1 -2.9,1.9 -4.8,5.4 l -0.2,-2.5 c 2.3,-2.9 3.4,-5.1 3.3,-6.6 z m -10.9,26 0.4,4.9 -1.4,0.1 -0.4,-4.9 z m -5.9,9.3 2.6,-0.2 c -0.3,4.2 -1.4,6.4 -3.3,6.6 l -1.4,0.1 c 1.5,-2.8 2.2,-5 2.1,-6.5 z m -4.2,12.8 1.2,-0.1 0.1,1.3 -2.3,4 -2.6,0.2 -0.1,-1.3 c 2.7,-0.2 3.9,-1.6 3.7,-4.1 z m -4.2,11.6 -0.9,6.4 -1.2,0.1 -0.5,-6.3 z m -42.7,121.3 c -1.7,8.4 -3.5,12.7 -5.4,12.9 l -0.1,-1.1 c -0.3,-4.2 1.5,-8.2 5.5,-11.8 z m -7.9,16.9 0.1,1.1 c 0.2,1.8 -0.6,2.8 -2.4,2.9 l -0.1,-1.3 c -0.1,-1.3 0.7,-2.2 2.4,-2.7 z m -2.2,35.2 4,-0.3 0.1,1.3 c -0.9,0.1 -2.3,0.6 -3.9,1.5 l -2.6,0.2 c -0.1,-1.4 0.7,-2.3 2.4,-2.7 z M 859.4,421 c -22,10.9 -35.1,18.3 -39.2,22.1 -24,8.4 -35.9,13.6 -35.7,15.7 -21.3,8.5 -35.3,14.6 -41.9,18.5 -1.6,0.1 -3.9,-0.5 -6.9,-1.9 -0.4,-4.3 1.6,-7.8 5.8,-10.4 3.8,-0.3 7.4,0.2 10.7,1.6 4,-2 10.9,-4.2 20.7,-6.7 l -0.2,-2.5 -8.1,0.7 c 1,-1.4 8.7,-5 23,-10.8 l 4,-0.3 0.1,1.1 c -6.8,0.6 -10.6,2.6 -11.4,6.2 0.1,1.6 1.1,2.4 2.8,2.2 5,-3.3 7.4,-5.2 7.4,-5.8 9.6,-1.7 36.2,-15.7 79.9,-41.9 l 0.2,2.5 c 0,1 -3.7,4.2 -11.2,9.7 z m -67,22 c 6.5,-0.6 12,-3.1 16.6,-7.5 1.7,-0.1 2.7,0.6 2.8,2.2 -3,0.3 -8.9,2.8 -17.8,7.6 l -1.4,0.1 z m 108.2,-83.1 -33.3,26.8 c -24.9,16.3 -38.4,24.5 -40.5,24.7 -39.6,21.8 -64.2,33.1 -73.9,33.9 l -1.4,0.1 c 1.2,-4.5 18.9,-40.6 53.1,-108.4 14.9,-1.3 38.5,-8.4 70.9,-21.2 l 8.1,-0.7 c 16.3,-1.4 28.5,1.8 36.5,9.5 l 0.4,4.9 c -6.1,17.2 -12.7,27.3 -19.9,30.4 z m -65.4,-36.8 5.2,-0.5 0.1,1.3 -5.2,0.5 z m 75.7,-12.9 4,-0.3 c 3.7,1.8 5.6,3.4 5.7,4.7 l 0.1,1.1 c -3.5,0.3 -6.8,-1.5 -9.8,-5.5 z m 10.5,-60.9 c -3.5,4.2 -13,11.4 -28.5,21.4 -5.2,0.5 -24.4,7.9 -57.6,22.3 -1.6,-0.6 -3.4,-0.8 -5.3,-0.7 l -0.2,-2.5 c -0.4,-4.8 1.7,-10.8 6.3,-18.1 2.6,-13.8 5.5,-21.5 8.5,-23.3 L 872.5,186 c -0.3,-3.7 5.6,-6.7 17.6,-9 l 4,-0.3 0.3,3.8 c 11.8,-1.9 19.2,-3 22.2,-3.3 22,-1.9 33.5,2.5 34.4,13.3 l 2.6,-0.2 -0.5,-6 2.6,-0.2 c 6.4,3.5 9.8,7.7 10.2,12.7 0.3,3.6 -1.5,8 -5.3,13.1 -1.7,0.2 -2.7,-1 -2.9,-3.6 l -2.6,0.2 -0.8,7.5 c -11.1,16.9 -19.2,25.6 -24.3,26 -4.5,6.1 -7.3,9.2 -8.6,9.3 z m 11.7,41.6 -0.3,-3.8 2.6,-0.2 5.6,3.4 c 0.1,1.6 -0.7,2.5 -2.4,2.7 -2.4,-1.5 -4.2,-2.2 -5.5,-2.1 z m -465.5,242.9 -2.6,0.6 -2.2,1.9 c 0.4,1.6 1.4,2.2 3.1,1.8 1.7,-0.4 2.4,-1.4 2,-3 z m -9.9,-19.7 0.3,1.3 c 1.7,-0.4 2.4,-1.4 2,-3 l -0.3,-1.3 c -1.6,0.4 -2.3,1.4 -2,3 z m 70.8,-133 1.9,-1.2 c -0.4,0 -0.7,-0.1 -1,-0.2 -0.7,0.2 -1,0.7 -0.9,1.4 z m -0.4,-34.5 3,-0.7 -0.6,-2.6 -3,0.7 z m 706.7,101 -6.8,-0.8 -1.2,2.6 0.1,1.3 40.5,-3.4 -0.2,-2.5 z m 37,-3.1 0.2,2.5 h 0.4 l -0.2,-2.5 z m 169.9,-22.2 0.2,2.5 4.4,0.8 -0.2,-2.5 z m -6.2,0.5 c -30.4,6.8 -34.2,5.6 -40.6,6.1 l 0.2,2.5 2.8,-0.2 1.5,-0.1 -0.4,-0.3 3.3,-1.3 c 30.1,-3.3 33.6,-2.1 33.3,-5.5 z m -182.5,-44.2 -2.7,-0.9 c -2.2,5.9 -3.3,9.4 -3.2,10.4 l 0.1,1.1 c 2.1,-0.1 4,-3.7 5.8,-10.6 z m -36.6,-19.7 -0.1,-1.3 -1.4,0.1 -2.5,1.6 1.4,2.4 c 1.9,-0.2 2.8,-1.1 2.6,-2.8 z m 79.5,82.2 -0.2,-2.5 -0.8,0.1 0.2,2.5 z m 165,-37.2 1.9,-0.2 c 1.1,-0.1 1.6,-1 1.5,-2.6 l -1.1,-2.4 c -6.9,0.6 -10.1,0.9 -15.7,4 l -0.1,-1.3 -8.3,0.8 c -0.2,-2.5 -0.9,-3.8 -2,-3.7 l -4.3,0.4 c -5,0.4 -7.4,0.2 -9.9,2.1 -0.1,-0.9 -0.4,-1.3 -0.9,-1.3 l -4.8,0.4 -2.8,1.6 c -0.1,-0.9 -0.4,-1.3 -0.9,-1.3 l -1.7,1.5 -0.1,-1.3 -6.7,-0.5 -1.6,0.1 0.2,2.5 3.4,0.9 3.2,-0.2 c 1.1,0.7 2.3,0.9 3.7,0.8 l 2.8,-1.4 0.1,1.1 c -15.7,3.9 -15.6,3.2 -26.4,5 -1.2,-0.8 -2.1,-1.2 -2.7,-1.1 l -0.2,0.2 c -1.2,-0.1 -1.9,-0.9 -2,-2.2 l 5.6,-0.7 c 0.4,0 0.7,0.4 3.8,1 4.5,-2.2 4.7,-3.1 7.1,-3.3 l -0.2,-2.5 c -15.4,3 -9.2,1 -28.5,2.7 l -0.9,0.1 -0.2,-2.5 c 24.8,-3 16.5,-1.3 25,-3.7 0.1,0.9 0.4,1.3 0.9,1.3 1,-1 2.1,-1.5 3.4,-1.7 l 1.7,-0.1 c 8.7,-0.7 11.6,1 28.8,-3.8 l 0.1,1.1 2.8,-1.4 2.6,-0.2 c -0.2,-2.5 3.6,-2.9 4.9,-3 l -0.2,-2.7 c -30.2,6.1 -38.1,4.4 -46.5,6.8 l -0.1,-1.1 c -7.9,1.4 -8.2,0.8 -10.2,0.9 -0.6,0.1 -1.5,0.6 -2.5,1.6 -0.1,-0.9 -0.4,-1.3 -1,-1.3 -0.3,0 -0.4,0.1 -0.5,0.1 l -25.6,4.2 c -0.1,-0.7 -0.4,-1.1 -1,-1 -13.3,2.8 -9.7,3.3 -27.5,4.9 -0.8,0.1 -1.9,0.5 -3.3,1.4 -0.1,-0.7 -0.5,-1.1 -1.4,-1 l -10.9,0.9 -7.3,1.8 c -0.1,-0.7 -0.5,-1.1 -1.4,-1 -4.1,1.1 -7.7,1.8 -10.6,2 h -0.2 c -1.8,0.2 0.9,-0.5 -0.5,-1.1 l -2.2,1.3 c -3.2,0.3 -1.5,-0.2 -12.5,-0.1 -19.3,2.4 -17.2,2.7 -19.3,2.8 l -7.2,-0.5 c 0.1,0.7 -0.3,1.2 -1.1,1.2 -8.2,-1.1 -12.4,-2.4 -12.5,-3.9 1.1,-7.8 3,-11.8 5.7,-12 l 1.4,-0.1 -1.2,2.6 1.4,-0.1 c 2.6,-1.4 3.8,-2.7 3.7,-3.9 l -0.2,-2.7 -2.6,0.2 -0.2,-2.5 c -0.2,-1.9 0.1,-3.6 0.8,-5 l 5.9,-9.5 0.2,2.5 2.8,-0.2 -0.2,-2.5 -1.6,-2.3 c 2.1,-1.8 3.7,-2.8 5,-2.9 l -0.1,-1.3 -3.8,0.3 -0.3,-3.8 c 7.6,-15.8 11.2,-25 11,-27.6 l 2.7,1.1 c 1.7,-0.1 2.5,-1.1 2.4,-2.9 l -2.6,0.2 -0.1,-1.1 c -0.2,-1.9 0.2,-3.7 1,-5.3 4.1,-4.3 6,-8.6 5.6,-13.1 0.8,-0.1 1.2,0.3 1.3,1.2 3.5,-2 6.2,-7.3 8.2,-16.1 6.2,-11.2 15,-33.6 26.5,-67.1 22,-59.2 21.1,-65.5 24.2,-79.5 l -2.6,0.2 c 0.2,1.8 -0.2,3.5 -1,5.1 -1.8,-0.7 -3.2,-1.1 -4.2,-1 l -0.1,-1.1 c -0.4,-5.1 1.7,-11.2 6.5,-18.4 l 1.2,-0.1 2.2,8.6 2.6,-0.2 c -0.1,-0.6 0.6,-4 2,-10.3 -0.1,-1.3 -1.1,-2.1 -3.1,-2.2 l -2.5,1.6 c -0.2,-1.8 -0.1,-6.5 0.2,-14 l -1.3,0.1 c -2.2,-2.2 -3.3,-4 -3.4,-5.5 l -14.3,1.4 c -0.1,-1 -0.6,-2.5 -1.6,-4.4 -0.1,-1.3 3.1,-2.6 9.7,-3.9 l 2.9,1.1 2.7,-1.6 c 0.1,0.9 0.6,1.3 1.6,1.2 l 2.7,-1.6 c 0.1,0.9 0.6,1.3 1.6,1.2 l 1.3,-0.1 -0.2,-2.9 c -2,0.2 -7.3,0.2 -15.7,-0.1 l -2.7,1.8 -0.1,-1.6 c -67.1,5.5 -105.2,8.6 -114.3,9.5 -1.2,0.1 -5.9,0 -14.2,-0.2 0.1,1.1 -0.9,1.7 -2.9,1.9 l -2.9,-1.3 -9.8,2.5 c -2.3,0.2 -6.2,0.1 -11.6,-0.5 -1.5,1.2 -3.3,1.9 -5.5,2.1 -1.2,0.1 14.3,-0.8 28.7,-1.8 -1.5,1.2 -3.8,1.9 -7,2.2 -2.2,0.2 -4.1,-0.1 -5.7,-1 -2.2,1 -9.3,2.6 -21.2,5 l -2.9,-1.1 -46.8,7.2 c -1.8,-0.9 -3.9,-1.2 -6.3,-1 -2.5,0.2 -6.7,1.1 -12.5,2.7 l -22.6,9.4 1.7,2.8 c 1.1,-0.1 2.7,-0.7 4.6,-1.8 l 8,0.7 -1,7.5 c -7.4,3.3 -11.7,8.2 -12.9,14.4 -11.1,4.9 -16.6,8.4 -16.6,10.5 l 0.1,1.3 1.7,-0.1 3,-1.6 3.5,4.2 0.5,5.8 c 0.2,1.8 -18.5,41.1 -55.9,117.9 -32.4,74 -49.4,114.5 -51,121.8 -11.1,3.1 -17.5,7.6 -19.4,13.6 0.2,1.9 3.5,3.2 9.9,3.7 l 0.3,2.9 -2.9,4.8 0.5,5.8 c 0.3,3 8.4,5.3 24.3,6.9 -0.1,-1 0.4,-1.6 1.5,-1.7 0.3,3.6 -0.7,10.6 -3,21 l 1.7,-0.1 c 6.6,-9 9.7,-15.2 9.4,-18.6 l 1.4,-0.1 c 1.6,-0.1 3.3,1.7 5.3,5.6 -2,0.8 -9,16.7 -21,47.8 l 1.7,2.8 1.7,-0.1 c 14.7,-37.2 23.9,-57.8 27.7,-61.7 19.3,-1.7 52.7,-5.1 100.1,-10.2 l 3,-1.8 c 0.1,1 0.7,1.5 1.8,1.4 l 3.1,-0.3 3,-1.8 c 0.1,1 0.7,1.5 1.8,1.4 l 35.9,-3.1 c 9.5,-0.8 14,-3.7 13.6,-8.6 -0.1,-1.3 5.5,-2.8 16.8,-4.4 1.1,-0.1 2.7,0.2 4.9,0.9 -0.1,-0.9 5.6,-1.8 17,-2.8 0.3,-6 2.2,-9.2 5.6,-9.5 l -0.3,-2.9 c -3.2,0.3 -6.8,1.1 -11,2.5 -7.5,-0.4 -12.3,-1 -14.3,-1.7 -2,1.1 -3.5,1.7 -4.6,1.8 l -25,0.8 -3,1.6 c -0.1,-0.9 -0.7,-1.3 -1.8,-1.2 l -1.4,0.1 -3.2,1.6 c -0.1,-0.9 -2.7,-1.6 -7.9,-2.3 l -3.2,1.9 -6.2,0.5 -0.1,-1.6 c 32.2,-3.5 48.1,-7.9 47.7,-13.1 2.1,-0.2 3.2,0.8 3.4,2.9 l 9.4,-2.4 -0.3,-2.9 -77.1,2.1 c 0.1,1 -0.4,1.6 -1.5,1.7 l -9.4,-0.8 c -2.4,0.2 -4.4,0.9 -6,2.1 l -3.5,-1.3 c -9.7,0.8 -16.9,2 -21.7,3.5 -6.6,-0.5 -13.9,-0.4 -22,0.3 l -17.3,1.5 -8,-0.9 c -0.4,-5.1 9.5,-30.2 29.9,-75.2 5.9,-15.2 11.3,-24.7 16.5,-28.3 1.1,-0.1 2.7,0.3 4.9,1.2 l 12.3,-4.2 6.3,1 c 10.6,-0.9 22.9,-3.9 37,-9.1 3.5,-0.3 6.1,-0.1 8,0.7 l 9.4,-2.2 28,-2.4 c 11.9,-1 24.8,-3.6 38.8,-7.9 l -0.3,-2.9 c -5.2,0.5 -7.9,-0.4 -8.1,-2.5 -0.3,-3.9 -4.1,-5.5 -11.4,-4.9 l -0.3,-2.9 7.7,-2.2 20.2,-1.7 -0.3,-2.9 c -0.8,0.1 -4.9,0 -12.5,-0.3 l -0.3,-3.1 7.8,-0.7 c 2.1,-0.2 3,-1.2 2.8,-3.2 -10.5,0.3 -15.8,-0.2 -15.9,-1.6 -73.2,3.6 -109.9,4.3 -110.1,2 -1.1,0.1 -2.6,0.8 -4.6,2 l -1.9,-3 c 19.4,-41.2 30.8,-62 34.1,-62.3 0.1,1.6 -0.7,4.2 -2.4,7.7 l 0.1,1.3 3.1,-0.3 c 7.7,-18.4 14.2,-27.9 19.6,-28.3 23,-2 -3.2,-3.5 46,-11.2 2,0.9 3.4,1.3 4.4,1.2 19.3,-3.9 46.2,-8 80.7,-12.2 l -0.2,-2.9 -18.4,1.7 -0.2,-2.9 c 2.2,-0.2 4,-0.9 5.5,-2.1 l 0.1,1.6 c 1,-0.1 2.4,-0.8 4.2,-2 3.2,-0.3 5.6,0 7.3,0.9 6.4,-1.7 11.6,-2.7 15.4,-3.1 l 11.5,-1.1 c 2.8,-1.8 4.1,-3.4 4,-4.9 l -0.1,-1.3 c -2.9,0.3 -6.2,0.1 -10.1,-0.6 -0.1,-1.6 0.7,-2.7 2.6,-3.2 l 21.4,-2 9.8,-2.5 c 0.1,1.1 0.6,1.5 1.4,1.5 1,-0.1 2.4,-0.8 4.2,-2 0.5,0.1 1.1,0.1 1.6,0.2 -1.3,2.7 -2.8,6.6 -4.3,11.7 l -2.8,0.2 c -0.2,-1.9 -0.7,-3.6 -1.6,-5.1 l -1.4,0.1 c -26,72.4 -37.6,106.1 -61.6,161.7 -4.4,14.2 -8.1,22.1 -11.3,23.8 0.1,1.6 1.1,2.4 2.8,2.2 0.6,7 -1,13.9 -4.9,20.7 -11.1,32 -18.5,49.5 -22.3,52.7 l 2.5,15.1 c 0.1,1.6 -0.7,2.5 -2.4,2.7 l -2.6,0.2 c -0.4,-4.2 -1.9,-6.2 -4.6,-5.9 l -1.4,0.1 c -3.4,5.3 -6,11.4 -7.7,18.5 l 2.6,-0.2 c 3.5,-2.3 5.1,-5 4.8,-8.1 l 5.2,-0.5 3,1.1 c -2.4,3.8 -3.5,6.8 -3.3,9.1 l 1.4,2.4 -3.4,8 0.1,1.3 c 3,-0.3 6.3,0.7 9.8,2.8 2.4,-0.2 5,-1.3 7.9,-3.2 3,-0.3 14.2,-0.4 33.5,-0.4 l 9.7,-3.3 c 11.8,-0.1 13.7,0.2 23.9,-0.7 l 4.2,-0.4 2.2,-1.5 0.1,1.3 c 10.7,-0.9 11.4,-0.2 19.8,0.8 l 0.1,1.3 -5.9,0.5 0.2,2.5 c 1.8,-0.2 3.4,-0.7 4.7,-1.8 1.5,-0.1 2.4,0.7 2.5,2.5 -2.4,0.2 -5.1,0.8 -8.1,1.8 l -2.6,-0.9 c -4.1,1.1 -3.2,1.4 -6,1.6 l -4.1,-0.8 c 0.1,0.7 -0.3,1.2 -1,1.2 0.1,1.6 1,2.4 2.5,2.3 l 4.2,-0.4 21.9,-1.9 8.3,-1.8 c 0.1,0.7 0.4,1.1 1.1,1 l 4,-1.5 7.5,-0.6 c 5.8,-0.5 5.7,-0.9 18.3,-2.9 -0.1,-0.8 0.2,-1.1 0.8,-1.2 l 0.1,1.1 c 20.5,-3.5 21.8,-3.7 25.1,-4.8 l 0.3,0.6 c 5.1,-1.2 2.2,-0.9 3.6,-1.9 0.1,0.9 0.4,1.3 0.9,1.3 l 3.6,-0.3 -0.2,-2.7 -7.3,-0.1 -0.1,-0.2 c -0.3,0.1 -0.5,0.1 -0.8,0.2 h -1 v 0.2 c -4.9,1 -5,0.3 -8.2,0.6 l -18.3,1 -0.1,-1.3 10.2,-1.4 3.7,-0.3 2.1,-1.5 0.1,1.3 c 14.4,-1.2 19.5,2.4 86.1,-11.8 3.6,-0.3 3.3,-3.3 5.6,-9.5 -1.2,0.1 -2.4,-0.2 -3.5,-0.8 -5.5,2.1 -8.4,1.1 -19,2.8 -0.9,0.1 -1.6,-0.7 -1.9,-2.3 l -0.1,-1.1 10.2,0.3 c 1.9,-0.2 5.6,-0.5 11.1,-3.6 0,0.9 -2.1,1.4 -0.9,1.3 z m -492.4,7.9 -4.7,0.4 c -0.2,-1.9 2.3,-9.1 7.5,-21.4 l 3.1,-0.3 c 0.1,2.9 -1.8,10 -5.9,21.3 z m 5.7,-22.8 -0.1,-1.3 c -0.1,-1.6 0.9,-2.7 3.1,-3.2 l 0.1,1.3 c 0.1,1.9 -0.9,3 -3.1,3.2 z m 62.5,48.3 0.1,1.3 -7.8,0.7 -0.1,-1.3 z m -9.4,-0.8 c 0.1,1.6 -2.3,3.4 -7.5,5.2 l -9.6,-0.7 -3.1,0.3 -0.3,-2.9 z m 63.2,-290.9 -4.7,0.4 -0.1,-1.6 c -0.1,-1.6 0.8,-2.7 2.8,-3.2 l 1.7,-0.1 3.2,1.3 c 0.1,1.9 -0.8,3 -2.9,3.2 z m 71.5,-14 1.5,-0.1 0.2,2.9 -4.3,0.4 c -0.1,-1.6 0.7,-2.7 2.6,-3.2 z m -18,6.3 -7.1,-0.8 -0.1,-1.3 c 9.3,-0.8 12.4,-1.8 18.1,-3.4 0.1,1.1 1.1,1.5 2.9,1.3 l 0.2,2.9 -2.8,0.3 c -2.2,0.2 -4.1,-0.1 -5.7,-1 -1.7,1.1 -3.5,1.8 -5.5,2 z m 8.9,25.9 -0.1,-1.3 11.5,-1.1 0.1,1.3 z m 12.3,-10 -0.1,-1.6 5.6,-0.5 0.1,1.6 z m 1.3,-19.6 -1.5,0.1 1.3,-3.1 12.8,-1.2 0.1,1.6 c -3.3,0.3 -7.6,1.2 -12.7,2.6 z m 6.5,27.6 -0.2,-2.9 5.6,-0.5 c 1.9,-0.2 2.9,0.7 3,2.7 z m 33.9,-46.2 -7.2,2 -1.3,0.1 c -3.4,0.3 -7.8,0.2 -13,-0.3 9.3,-0.6 18.2,-1.3 21.5,-1.8 z m -7.7,32 0.1,1.3 -9.9,0.9 -0.1,-1.3 z m 16.2,7.7 c -0.1,-1.2 -2,-2 -5.9,-2.4 l -9.9,2.8 -7.6,0.3 c -1.7,-1.2 -2.6,-2 -2.7,-2.6 l 8.8,0.5 19.8,-3.2 10.1,0.4 0.1,1.6 c -5,0.5 -9.2,1.4 -12.7,2.6 z M 1317.3,129 c 1.2,0.1 2,0.1 2.3,0.1 3.5,-3.4 7.4,-6.1 11.9,-8 -3.6,15.8 -9.2,27.5 -16.9,35.1 l -5.6,-3.4 c 4.7,-11.9 7.5,-19.8 8.3,-23.8 z m -17.2,29.5 1.4,-0.1 c -1.9,3.6 -3.6,5.5 -5,5.6 l -0.3,-3.8 c 0.9,0 2.2,-0.6 3.9,-1.7 z M 1289,185 c 2.7,-10.8 5.3,-16.9 7.7,-18.5 l 0.1,1.3 c -1.4,10 -3.6,15.3 -6.5,15.7 l 0.5,6.3 c -2.4,3.4 -3.5,6 -3.4,8 l -1.4,0.1 -0.8,-8.7 c 1.6,-0.2 2.9,-1.6 3.8,-4.2 z m -4.3,14.4 c 0.1,1.5 -0.9,5 -2.9,10.4 l -1.4,0.1 -0.3,-3.8 c 1.9,-4.4 3.5,-6.6 4.6,-6.7 z m -80.7,234.2 -0.1,-1.1 2.6,-0.2 0.3,3.8 c -1.4,0.1 -2.4,-0.7 -2.8,-2.5 z m 115.3,3 c -0.1,-0.9 -0.5,-1.3 -1.4,-1.2 l -6.5,0.6 -0.1,-1.3 h 0.6 l 15.4,-1.3 0.1,1.3 c -4.5,0.2 -7.2,0.9 -8.1,1.9 z m -7.7,-3.2 c 0.6,0.3 0.3,0.6 0,0.8 -0.3,-0.1 -0.7,-0.4 0,-0.8 z m 0.8,-18 -8.6,0.7 -0.1,-1.3 7.8,-0.7 6.8,-1.7 c 0.1,0.8 0.5,1.1 1.4,1 8.1,-1.4 7.3,-1.8 11.2,-2.1 1.3,-0.1 2.1,0.7 2.2,2.3 z m 30.1,-2.6 c -4.8,-0.5 -5.1,-0.9 -8.5,-0.6 l -0.1,-1.1 7.7,-0.7 0.1,1.1 c -0.8,0.1 2.1,0.3 0.8,1.3 z m 0.6,-1.4 -0.1,-1.1 4.2,-0.4 0.1,1.1 z m 9.3,-0.8 -0.1,-1.1 c 0.7,-0.1 1.7,-0.6 3,-1.6 2.1,-0.2 3.2,1.2 3.4,2.8 z m 11.9,-1.5 -0.1,-1.3 5.1,-0.4 0.1,1.3 z m 7.1,-0.6 c -0.1,-1.5 0.5,-2.4 1.8,-2.6 l 1.7,2.2 c -0.1,-0.7 0.2,-1.1 0.8,-1.2 l 1.3,2.4 z m 98.4,-11.6 0.1,-0.1 v -0.1 c 0,0 -0.1,0.1 -0.1,0.2 z m 1.8,-1.3 c 0.8,-0.5 1.2,-1 -0.7,-1.3 -0.9,1 1,1.3 -1,1.4 l 0.1,0.9 c 0.2,-0.2 0.7,-0.5 1.1,-0.8 l -1.1,0.9 v 0.1 l -2.1,2.7 4.2,-1.5 h 0.5 l -0.2,-2.5 z m 7.3,5.7 -0.8,0.1 0.2,2.5 5.9,-0.5 c -0.1,-1.6 -4,-2.1 -5.3,-2.1 z"
           inkscape:connector-curvature="0"
           style="fill:#f9dc3e" />
      </g>
    </g>
  </g>
</svg>
