<?xml version="1.0" encoding="utf-8"?>
<!-- Generator: Adobe Illustrator 18.1.1, SVG Export Plug-In . SVG Version: 6.00 Build 0)  -->
<!DOCTYPE svg PUBLIC "-//W3C//DTD SVG 1.1//EN" "http://www.w3.org/Graphics/SVG/1.1/DTD/svg11.dtd">
<svg version="1.1" id="Vrstva_1" xmlns="http://www.w3.org/2000/svg" xmlns:xlink="http://www.w3.org/1999/xlink" x="0px" y="0px"
	 viewBox="0 0 379.486 161.663" enable-background="new 0 0 379.486 161.663" xml:space="preserve">
<g>
	<path fill="#bd0e4f" d="M45.216,160.585c-0.089,0-0.177-0.008-0.264-0.021c-0.089-0.015-0.176-0.037-0.262-0.067
		c-0.001,0-0.002,0-0.002,0l-0.002-0.002c-0.062-0.021-0.122-0.046-0.181-0.075c-0.002,0-0.002-0.004-0.005-0.002
		c-0.002-0.004-0.003,0-0.005-0.004c-0.194-0.096-0.369-0.233-0.513-0.407L2.928,111.943c-0.045-0.052-0.088-0.106-0.127-0.166
		c-0.028-0.042-0.054-0.085-0.078-0.129c-0.002,0-0.002-0.004-0.002-0.004c-0.132-0.245-0.195-0.511-0.192-0.777l0.119-43.732
		c0-0.035,0.001-0.07,0.003-0.105c0.009-0.138,0.035-0.273,0.076-0.401c-0.001-0.001,0.002,0.002,0.001-0.003
		c0.072-0.222,0.195-0.43,0.363-0.607l0,0c0.001,0,0.001,0,0.001,0c0.028-0.03,0.058-0.059,0.088-0.086l30.379-27.783
		c0.09-0.083,0.188-0.156,0.296-0.218l0,0c0.001-0.001,0.002-0.001,0.003-0.002c0.069-0.04,0.142-0.074,0.216-0.102l53.765-21.133
		c0.028-0.011,0.056-0.021,0.085-0.031c0.26-0.089,0.532-0.104,0.791-0.06c0.001,0.001,0.002,0.001,0.004,0.001h0.001
		c0.088,0.016,0.175,0.039,0.261,0.07c0.053,0.019,0.105,0.041,0.156,0.067c0.001,0,0.001,0,0.001,0
		c0.003,0.003,0.004,0.001,0.007,0.004c0.002,0,0.003,0.002,0.006,0.002c0,0.001,0.001,0.001,0.001,0.001
		c0.196,0.097,0.373,0.236,0.517,0.41l41.147,48.325c0.042,0.049,0.083,0.101,0.119,0.156l0,0c0.001,0.002,0.002,0.003,0.003,0.004
		c0.031,0.046,0.059,0.093,0.085,0.142c0.13,0.243,0.192,0.507,0.189,0.769v43.376c0,0.023,0,0.044-0.001,0.067c0,0,0,0,0,0.002
		v0.002c-0.001,0.023-0.002,0.046-0.004,0.071l0,0l-0.001,0.002c-0.01,0.123-0.034,0.243-0.07,0.357l0,0l0,0
		c-0.074,0.231-0.2,0.449-0.378,0.63c-0.026,0.027-0.052,0.052-0.08,0.077l-30.497,27.785c-0.106,0.098-0.226,0.183-0.357,0.251
		c-0.002,0-0.002-0.002-0.004,0.002c-0.05,0.025-0.101,0.048-0.153,0.067L45.815,160.47c-0.034,0.013-0.067,0.025-0.101,0.037
		c-0.001,0-0.001,0-0.001,0c-0.001,0-0.001,0-0.002,0C45.548,160.56,45.381,160.585,45.216,160.585L45.216,160.585z M46.819,115.985
		v39.399l26.701-24.019l-15.943-19.404L46.819,115.985L46.819,115.985z M6.809,111.55l36.803,43.086V115.48l-12.117-13.717
		L6.809,111.55L6.809,111.55z M76.587,132.918l-23.695,21.315l43.476-17.136l-7.832-8.83L76.587,132.918L76.587,132.918z
		 M100.586,123.456l0.08,10.688l21.222-19.335L100.586,123.456L100.586,123.456z M91.708,127.011l5.746,6.479l-0.066-8.749
		L91.708,127.011L91.708,127.011z M77.335,115.314v13.873l8.963-3.488L77.335,115.314L77.335,115.314z M60.728,110.743
		l13.401,16.311v-15.486l-3.719-4.625L60.728,110.743L60.728,110.743z M77.335,110.408l12.126,14.049l7.91-3.16l-0.002-25.256
		l-20.034,8.292V110.408L77.335,110.408z M100.576,94.355l0.002,25.644l26.35-10.695l-18.826-21.711L100.576,94.355L100.576,94.355z
		 M34.654,100.495l10.744,12.162l7.604-6.186l-8.708-9.863L34.654,100.495L34.654,100.495z M57.524,106.837l1.066,1.301l9.636-3.783
		l-3.442-3.979L57.524,106.837L57.524,106.837z M5.843,71.441l-0.097,35.891L23.364,91.84L5.843,71.441L5.843,71.441z
		 M25.416,94.307l-13.289,11.684l17.21-6.822L25.416,94.307L25.416,94.307z M110.499,85.463l17.505,20.186V70.084L110.499,85.463
		L110.499,85.463z M47.438,95.324l8.007,9.069l7.285-6.483l-5.341-6.672L47.438,95.324L47.438,95.324z M67.15,98.209l4.259,4.924
		l2.721-0.994l0.01-10.537L67.15,98.209L67.15,98.209z M77.349,88.957l-0.012,11.904l18.932-7.838l-7.716-8.619L77.349,88.957
		L77.349,88.957z M27.803,92.16l4.649,5.766l9.55-3.852l-7.447-8.136L27.803,92.16L27.803,92.16z M60.082,89.472l5.015,6.265
		l8.451-7.988l-5.013-5.992L60.082,89.472L60.082,89.472z M37.38,84.275l7.792,8.513l11.115-4.563V76.449L37.38,84.275L37.38,84.275
		z M91.698,83.109l7.398,8.265l6.914-6.211l-5.035-5.901L91.698,83.109L91.698,83.109z M6.921,67.776l18.827,21.917l7.3-6.727V57.19
		L6.921,67.776L6.921,67.776z M70.909,79.598l5.317,6.353l10.106-4.105l-7.811-9.137L70.909,79.598L70.909,79.598z M59.494,75.17
		v10.495l6.981-6.37l-4.278-5.114L59.494,75.17L59.494,75.17z M104.129,78.019l4.279,5.014l13.427-11.798L104.129,78.019
		L104.129,78.019z M36.254,55.892v25.378l20.033-8.291v-5.505L44.026,52.747L36.254,55.892L36.254,55.892z M80.932,70.594
		l8.524,9.973l9.327-3.869L88.253,64.394L80.932,70.594L80.932,70.594z M65.357,72.963l3.493,4.174l7.56-6.844l-1.128-1.262
		L65.357,72.963L65.357,72.963z M90.038,61.547l11.882,13.885l24.997-9.577l-36.88-43.313V61.547L90.038,61.547z M59.494,66.283
		l3.661,4.104l9.948-3.942L59.494,49.801V66.283L59.494,66.283z M60.106,45.484l16.128,19.724l10.597-4.162V21.753L60.106,45.484
		L60.106,45.484z M47.139,51.473l9.149,10.989v-14.76L47.139,51.473L47.139,51.473z M33.048,42.965L11.912,62.293l21.135-8.563
		V42.965L33.048,42.965z M36.254,43.658v8.775l5.587-2.26L36.254,43.658L36.254,43.658z M37.336,39.993l7.636,8.904l12.058-4.969
		l23.591-20.949L37.336,39.993L37.336,39.993z"/>
	<path fill="#000" d="M177.924,27.603l32.064-8.891L204.45,1.077l-31.19,12.096L177.924,27.603z M175.593,34.454H147.9v66.898
		c-0.024,5.878,0.68,11.247,2.089,16.055c1.409,4.81,3.668,8.94,6.802,12.414c3.133,3.473,7.263,6.145,12.388,8.04
		c5.125,1.869,11.393,2.817,18.802,2.842c7.845-0.025,14.38-0.973,19.602-2.817c5.247-1.871,9.4-4.544,12.461-7.992
		c3.062-3.451,5.247-7.579,6.56-12.364c1.287-4.81,1.919-10.154,1.894-16.033V53.68l25.943,85.564h30.315l25.804-83.949h10.634
		v83.949h27.69V55.295h21.655l6.419-20.841h-59.992h-24.046h-3.209l-15.157,56.987c-0.339,1.239-0.703,2.769-1.093,4.59
		c-0.389,1.798-0.778,3.74-1.143,5.806c-0.387,2.064-0.728,4.08-1.019,6.024c-0.291,1.942-0.534,3.667-0.68,5.149h-0.437
		c-0.121-1.434-0.291-3.037-0.559-4.81c-0.243-1.773-0.534-3.571-0.875-5.442c-0.339-1.869-0.703-3.69-1.093-5.415
		c-0.364-1.75-0.754-3.328-1.116-4.737L251.38,34.454h-22.882h-5.829h-21.863v63.254c0.025,2.866-0.048,5.538-0.243,8.04
		c-0.218,2.526-0.703,4.737-1.457,6.656c-0.777,1.894-2.016,3.401-3.717,4.494c-1.677,1.068-4.008,1.626-6.97,1.651
		c-3.037-0.025-5.417-0.632-7.167-1.821c-1.749-1.168-3.036-2.771-3.838-4.737c-0.802-1.969-1.311-4.178-1.53-6.608
		c-0.219-2.405-0.316-4.883-0.291-7.385V34.454z"/>
</g>
</svg>
